<svg xmlns="http://www.w3.org/2000/svg" width="40.688" height="40" viewBox="0 0 40.688 40">
  <metadata><?xpacket begin="﻿" id="W5M0MpCehiHzreSzNTczkc9d"?>
<x:xmpmeta xmlns:x="adobe:ns:meta/" x:xmptk="Adobe XMP Core 5.6-c138 79.159824, 2016/09/14-01:09:01        ">
   <rdf:RDF xmlns:rdf="http://www.w3.org/1999/02/22-rdf-syntax-ns#">
      <rdf:Description rdf:about=""/>
   </rdf:RDF>
</x:xmpmeta>
                                                                                                    
                                                                                                    
                                                                                                    
                                                                                                    
                                                                                                    
                                                                                                    
                                                                                                    
                                                                                                    
                                                                                                    
                                                                                                    
                                                                                                    
                                                                                                    
                                                                                                    
                                                                                                    
                                                                                                    
                                                                                                    
                                                                                                    
                                                                                                    
                                                                                                    
                                                                                                    
                           
<?xpacket end="w"?></metadata>
<defs>
    <style>
      .cls-1 {
        fill: #fff;
        fill-rule: evenodd;
      }
    </style>
  </defs>
  <path id="Forma_1" data-name="Forma 1" class="cls-1" d="M970.754,2256.31a3.516,3.516,0,0,0-3.438-2.81,0.7,0.7,0,1,0,0,1.4,2.105,2.105,0,1,1,0,4.21,0.705,0.705,0,0,0,0,1.41,3.517,3.517,0,0,0,3.438-2.81h9.195v4.91h-37.9v-4.91h11.931a0.7,0.7,0,1,0,0-1.4h-1.275a2.1,2.1,0,1,1,1.977,2.8,0.705,0.705,0,0,0,0,1.41,3.51,3.51,0,1,0-3.438-4.21h-10.6v37.19h40.7v-37.19h-10.6Zm-9.052,7.72h8.421v8.42H961.7v-8.42Zm8.421,18.24H961.7v-8.42h8.421v8.42Zm-18.246-8.42H960.3v8.42h-8.421v-8.42Zm0-9.82H960.3v8.42h-8.421v-8.42Zm-9.826.7v-0.7h8.422v8.42h-8.422v-7.72Zm0,9.12h8.422v8.42h-8.422v-8.42Zm0,18.25v-8.42h8.422v8.42h-8.422Zm9.826,0v-8.42H960.3v8.42h-8.421Zm9.825,0v-8.42h8.421v8.42H961.7Zm18.247,0h-8.422v-8.42h8.422v8.42Zm0-9.83h-8.422v-8.42h8.422v8.42Zm-8.422-9.82v-8.42h8.422v8.42h-8.422ZM958.9,2254.9a2.1,2.1,0,1,1,0,4.21,0.705,0.705,0,0,0,0,1.41,3.51,3.51,0,0,0,0-7.02A0.7,0.7,0,1,0,958.9,2254.9Zm4.21,0a2.105,2.105,0,1,1,0,4.21,0.705,0.705,0,0,0,0,1.41,3.51,3.51,0,0,0,0-7.02A0.7,0.7,0,1,0,963.105,2254.9Zm-0.5,26.46a0.692,0.692,0,0,0,.993,0l2.311-2.31,2.311,2.31a0.691,0.691,0,0,0,.992,0,0.7,0.7,0,0,0,0-.99l-2.311-2.31,2.311-2.31a0.7,0.7,0,0,0,0-.99,0.691,0.691,0,0,0-.992,0l-2.311,2.31-2.311-2.31a0.692,0.692,0,0,0-.993,0,0.7,0.7,0,0,0,0,.99l2.311,2.31-2.311,2.31A0.7,0.7,0,0,0,962.609,2281.36Z" transform="translate(-940.656 -2253.5)"/>
</svg>
