<svg xmlns="http://www.w3.org/2000/svg" width="40" height="26.62" viewBox="0 0 40 26.62">
  <metadata><?xpacket begin="﻿" id="W5M0MpCehiHzreSzNTczkc9d"?>
<x:xmpmeta xmlns:x="adobe:ns:meta/" x:xmptk="Adobe XMP Core 5.6-c138 79.159824, 2016/09/14-01:09:01        ">
   <rdf:RDF xmlns:rdf="http://www.w3.org/1999/02/22-rdf-syntax-ns#">
      <rdf:Description rdf:about=""/>
   </rdf:RDF>
</x:xmpmeta>
                                                                                                    
                                                                                                    
                                                                                                    
                                                                                                    
                                                                                                    
                                                                                                    
                                                                                                    
                                                                                                    
                                                                                                    
                                                                                                    
                                                                                                    
                                                                                                    
                                                                                                    
                                                                                                    
                                                                                                    
                                                                                                    
                                                                                                    
                                                                                                    
                                                                                                    
                                                                                                    
                           
<?xpacket end="w"?></metadata>
<defs>
    <style>
      .cls-1 {
        fill: #4c4c4c;
        fill-rule: evenodd;
      }
    </style>
  </defs>
  <path id="Forma_1" data-name="Forma 1" class="cls-1" d="M771.828,1523.18H740.172a4.173,4.173,0,0,0-4.166,4.17v18.3a4.173,4.173,0,0,0,4.166,4.17h31.656a4.172,4.172,0,0,0,4.165-4.17v-18.3A4.172,4.172,0,0,0,771.828,1523.18Zm2.5,22.47a2.5,2.5,0,0,1-2.5,2.5H740.172a2.5,2.5,0,0,1-2.5-2.5v-18.3a2.5,2.5,0,0,1,2.5-2.5h31.656a2.5,2.5,0,0,1,2.5,2.5v18.3h0Zm0.833-17.47H736.839a0.831,0.831,0,0,0-.833.83V1534a0.84,0.84,0,0,0,.833.84H775.16a0.84,0.84,0,0,0,.834-0.84v-4.99A0.832,0.832,0,0,0,775.16,1528.18Zm-0.833,4.99H737.672v-3.33h36.655v3.33h0Zm-22.492,6.66h-10a0.83,0.83,0,1,0,0,1.66h10A0.83,0.83,0,1,0,751.835,1539.83Zm0,3.33h-10a0.83,0.83,0,1,0,0,1.66h10A0.83,0.83,0,1,0,751.835,1543.16Zm16.661-5H766.83a2.5,2.5,0,0,0-2.5,2.5v1.67a2.5,2.5,0,0,0,2.5,2.49H768.5a2.5,2.5,0,0,0,2.5-2.49v-1.67A2.5,2.5,0,0,0,768.5,1538.16Zm0.833,4.17a0.831,0.831,0,0,1-.833.83H766.83a0.831,0.831,0,0,1-.833-0.83v-1.67a0.831,0.831,0,0,1,.833-0.83H768.5a0.831,0.831,0,0,1,.833.83v1.67Z" transform="translate(-736 -1523.19)"/>
</svg>
