<svg xmlns="http://www.w3.org/2000/svg" width="11" height="21.5" viewBox="0 0 11 21.5">
  <metadata><?xpacket begin="﻿" id="W5M0MpCehiHzreSzNTczkc9d"?>
<x:xmpmeta xmlns:x="adobe:ns:meta/" x:xmptk="Adobe XMP Core 5.6-c138 79.159824, 2016/09/14-01:09:01        ">
   <rdf:RDF xmlns:rdf="http://www.w3.org/1999/02/22-rdf-syntax-ns#">
      <rdf:Description rdf:about=""/>
   </rdf:RDF>
</x:xmpmeta>
                                                                                                    
                                                                                                    
                                                                                                    
                                                                                                    
                                                                                                    
                                                                                                    
                                                                                                    
                                                                                                    
                                                                                                    
                                                                                                    
                                                                                                    
                                                                                                    
                                                                                                    
                                                                                                    
                                                                                                    
                                                                                                    
                                                                                                    
                                                                                                    
                                                                                                    
                                                                                                    
                           
<?xpacket end="w"?></metadata>
<defs>
    <style>
      .cls-1 {
        fill: #fff;
        fill-rule: evenodd;
      }
    </style>
  </defs>
  <path class="cls-1" d="M1438.35,3983.54h2.39v9.69a0.348,0.348,0,0,0,.35.35h4.05a0.348,0.348,0,0,0,.35-0.35v-9.64h2.75a0.348,0.348,0,0,0,.35-0.31l0.42-3.57a0.344,0.344,0,0,0-.09-0.27,0.363,0.363,0,0,0-.26-0.11h-3.17v-2.24a0.944,0.944,0,0,1,1.1-1.02h2.07a0.346,0.346,0,0,0,.35-0.34v-3.28a0.346,0.346,0,0,0-.35-0.34h-2.85c-0.02,0-.07-0.01-0.13-0.01a5.541,5.541,0,0,0-3.58,1.33,3.708,3.708,0,0,0-1.25,3.28v2.62h-2.5a0.348,0.348,0,0,0-.36.34v3.53A0.348,0.348,0,0,0,1438.35,3983.54Z" transform="translate(-1438 -3972.09)"/>
</svg>
