<svg xmlns="http://www.w3.org/2000/svg" width="71.184" height="80" viewBox="0 0 71.184 80">
  <metadata><?xpacket begin="﻿" id="W5M0MpCehiHzreSzNTczkc9d"?>
<x:xmpmeta xmlns:x="adobe:ns:meta/" x:xmptk="Adobe XMP Core 5.6-c138 79.159824, 2016/09/14-01:09:01        ">
   <rdf:RDF xmlns:rdf="http://www.w3.org/1999/02/22-rdf-syntax-ns#">
      <rdf:Description rdf:about=""/>
   </rdf:RDF>
</x:xmpmeta>
                                                                                                    
                                                                                                    
                                                                                                    
                                                                                                    
                                                                                                    
                                                                                                    
                                                                                                    
                                                                                                    
                                                                                                    
                                                                                                    
                                                                                                    
                                                                                                    
                                                                                                    
                                                                                                    
                                                                                                    
                                                                                                    
                                                                                                    
                                                                                                    
                                                                                                    
                                                                                                    
                           
<?xpacket end="w"?></metadata>
<defs>
    <style>
      .cls-1 {
        fill: #023a87;
        fill-rule: evenodd;
      }
    </style>
  </defs>
  <path id="Forma_1" data-name="Forma 1" class="cls-1" d="M1012.88,1547.81a2.729,2.729,0,0,1,1.95.8,1.485,1.485,0,0,0,2.13,0,1.5,1.5,0,0,0,0-2.13,5.77,5.77,0,0,0-8.16,0,1.506,1.506,0,1,0,2.13,2.13A2.729,2.729,0,0,1,1012.88,1547.81Zm27.16-1.33a1.506,1.506,0,1,0,2.13,2.13,2.77,2.77,0,0,1,3.9,0,1.509,1.509,0,0,0,2.13,0,1.5,1.5,0,0,0,0-2.13A5.776,5.776,0,0,0,1040.04,1546.48Zm4.07,14.88a22.1,22.1,0,0,1-31.22,0,1.515,1.515,0,0,0-2.14,0,1.533,1.533,0,0,0,0,2.14,25.156,25.156,0,0,0,35.5,0,1.533,1.533,0,0,0,0-2.14A1.515,1.515,0,0,0,1044.11,1561.36Zm19.99-11.93a8.392,8.392,0,0,0-6.86-8.23v-25.23a9.756,9.756,0,0,0-12.98-9.2l-9.47-3.21a37.581,37.581,0,0,0-22.15-.73c-9.45,2.6-14.866,8.11-15.7,15.95a11.4,11.4,0,0,0-1.727,3.25l-0.734,2.18a2.62,2.62,0,0,0,4.3,2.72,5.167,5.167,0,0,1,.982-0.75v15.02a8.366,8.366,0,0,0,.468,16.53,28.952,28.952,0,0,0,7.93,15.22,28.365,28.365,0,0,0,20.34,8.55h0a28.753,28.753,0,0,0,28.31-23.78A8.368,8.368,0,0,0,1064.1,1549.43Zm-12.89-39.07a6.633,6.633,0,0,1,3.01,5.61v19.74a9.81,9.81,0,0,1-8.28-9.67l-0.12-16.59A6.626,6.626,0,0,1,1051.21,1510.36Zm-53.433,13.51,0.293-.87a8.442,8.442,0,0,1,11.57-4.96,11.536,11.536,0,0,0,13.43-2.79l0.38-.43a1.509,1.509,0,0,0-2.26-2l-0.38.43a8.491,8.491,0,0,1-9.89,2.06,11.48,11.48,0,0,0-9.36-.15c-0.27.12-.54,0.25-0.8,0.38,1.76-4.67,6-7.96,12.68-9.81a34.611,34.611,0,0,1,20.38.69l8.98,3.04,0.12,7.8a26.658,26.658,0,0,1-36.03,6.52A8.156,8.156,0,0,0,997.777,1523.87Zm-1.856,25.56a5.359,5.359,0,0,1,3.841-5.13v8.18c0,0.7.025,1.41,0.075,2.1A5.351,5.351,0,0,1,995.921,1549.43Zm50.769,21.52a25.551,25.551,0,0,1-18.19,7.53h0a25.379,25.379,0,0,1-18.2-7.65,25.989,25.989,0,0,1-7.52-18.35v-27.01a5.138,5.138,0,0,1,2.46.84,29.671,29.671,0,0,0,37.69-4.37v4.1a12.815,12.815,0,0,0,11.29,12.71v14.01A25.551,25.551,0,0,1,1046.69,1570.95Zm10.49-16.37c0.04-.6.06-1.21,0.06-1.82v-8.46A5.349,5.349,0,0,1,1057.18,1554.58Z" transform="translate(-992.906 -1501.5)"/>
</svg>
