<svg xmlns="http://www.w3.org/2000/svg" width="74.62" height="80" viewBox="0 0 74.62 80">
  <metadata><?xpacket begin="﻿" id="W5M0MpCehiHzreSzNTczkc9d"?>
<x:xmpmeta xmlns:x="adobe:ns:meta/" x:xmptk="Adobe XMP Core 5.6-c138 79.159824, 2016/09/14-01:09:01        ">
   <rdf:RDF xmlns:rdf="http://www.w3.org/1999/02/22-rdf-syntax-ns#">
      <rdf:Description rdf:about=""/>
   </rdf:RDF>
</x:xmpmeta>
                                                                                                    
                                                                                                    
                                                                                                    
                                                                                                    
                                                                                                    
                                                                                                    
                                                                                                    
                                                                                                    
                                                                                                    
                                                                                                    
                                                                                                    
                                                                                                    
                                                                                                    
                                                                                                    
                                                                                                    
                                                                                                    
                                                                                                    
                                                                                                    
                                                                                                    
                                                                                                    
                           
<?xpacket end="w"?></metadata>
<defs>
    <style>
      .cls-1 {
        fill: #023a87;
        fill-rule: evenodd;
      }
    </style>
  </defs>
  <path class="cls-1" d="M1045.47,1349.33a1.338,1.338,0,0,0-1.34-1.33h-7.99a1.335,1.335,0,0,0,0,2.67h7.99A1.34,1.34,0,0,0,1045.47,1349.33Zm-5.33-34.66V1308a1.335,1.335,0,0,0-2.67,0v6.67a6.671,6.671,0,0,0,6.66,6.66h12v25.34a1.33,1.33,0,0,0,2.66,0V1320a1.329,1.329,0,0,0-1.33-1.33h-13.33A4,4,0,0,1,1040.14,1314.67Zm3.99,17.33h-10.66a1.335,1.335,0,0,0,0,2.67h10.66A1.335,1.335,0,1,0,1044.13,1332Zm-14.65,1.33a1.338,1.338,0,0,0-1.34-1.33h-7.99a1.335,1.335,0,0,0,0,2.67h7.99A1.34,1.34,0,0,0,1029.48,1333.33Zm-9.33,6.67a1.335,1.335,0,0,0,0,2.67h2.66a1.335,1.335,0,1,0,0-2.67h-2.66Zm0-13.33h13.32a1.335,1.335,0,1,0,0-2.67h-13.32A1.335,1.335,0,0,0,1020.15,1326.67Zm7.99,16h13.33a1.335,1.335,0,0,0,0-2.67h-13.33A1.335,1.335,0,0,0,1028.14,1342.67Zm8,13.33a1.335,1.335,0,0,0,0,2.67h2.66a1.335,1.335,0,1,0,0-2.67h-2.66Zm-5.33-8h-10.66a1.335,1.335,0,0,0,0,2.67h10.66A1.335,1.335,0,0,0,1030.81,1348Zm0,8h-10.66a1.335,1.335,0,0,0,0,2.67h10.66A1.335,1.335,0,0,0,1030.81,1356Zm31.72-1.08-2.66-2.67a5.024,5.024,0,0,0-7.22,0l-17.45,17.47a1.339,1.339,0,0,0-.39.95v8a1.329,1.329,0,0,0,1.33,1.33h7.99a1.339,1.339,0,0,0,.95-0.39l17.45-17.47A4.878,4.878,0,0,0,1062.53,1354.92Zm-11.6,2.83,2.11,2.11-11.57,11.59-2.12-2.12Zm-13.46,19.58v-6.11l6.11,6.11h-6.11Zm8-1.88-2.12-2.12,11.58-11.58,2.11,2.11Zm15.18-15.2-1.72,1.73-6.11-6.12,1.72-1.72a2.265,2.265,0,0,1,3.44,0l2.67,2.67A2.231,2.231,0,0,1,1060.65,1360.25Zm-29.84,17.08H996.162a4,4,0,0,1-4-4v-66.66a4,4,0,0,1,4-4h42.088l12.94,12.94a1.333,1.333,0,1,0,1.88-1.89l-13.32-13.33a1.339,1.339,0,0,0-.95-0.39H996.162a6.672,6.672,0,0,0-6.662,6.67v66.66a6.672,6.672,0,0,0,6.662,6.67h34.648A1.335,1.335,0,0,0,1030.81,1377.33Zm0-13.33h-10.66a1.335,1.335,0,0,0,0,2.67h10.66A1.335,1.335,0,0,0,1030.81,1364Zm-17.32-38.67a1.338,1.338,0,0,0-1.34-1.33h-7.99a1.329,1.329,0,0,0-1.33,1.33v8a1.332,1.332,0,0,0,1.33,1.34h7.99a1.34,1.34,0,0,0,1.34-1.34v-8Zm-2.67,6.67h-5.33v-5.33h5.33V1332Zm-6.66,34.67h7.99a1.332,1.332,0,0,0,1.33-1.34v-8a1.329,1.329,0,0,0-1.33-1.33h-7.99a1.338,1.338,0,0,0-1.34,1.33v8A1.34,1.34,0,0,0,1004.16,1366.67Zm1.33-8h5.33V1364h-5.33v-5.33Zm0.39-8.39a1.333,1.333,0,0,0,.94.39,0.528,0.528,0,0,0,.13-0.01,1.312,1.312,0,0,0,.98-0.59l5.33-8a1.334,1.334,0,1,0-2.22-1.48l-4.42,6.65-1.52-1.52a1.333,1.333,0,0,0-1.88,1.89Z" transform="translate(-989.5 -1300)"/>
</svg>
