<svg xmlns="http://www.w3.org/2000/svg" width="80" height="77.47" viewBox="0 0 80 77.47">
  <metadata><?xpacket begin="﻿" id="W5M0MpCehiHzreSzNTczkc9d"?>
<x:xmpmeta xmlns:x="adobe:ns:meta/" x:xmptk="Adobe XMP Core 5.6-c138 79.159824, 2016/09/14-01:09:01        ">
   <rdf:RDF xmlns:rdf="http://www.w3.org/1999/02/22-rdf-syntax-ns#">
      <rdf:Description rdf:about=""/>
   </rdf:RDF>
</x:xmpmeta>
                                                                                                    
                                                                                                    
                                                                                                    
                                                                                                    
                                                                                                    
                                                                                                    
                                                                                                    
                                                                                                    
                                                                                                    
                                                                                                    
                                                                                                    
                                                                                                    
                                                                                                    
                                                                                                    
                                                                                                    
                                                                                                    
                                                                                                    
                                                                                                    
                                                                                                    
                                                                                                    
                           
<?xpacket end="w"?></metadata>
<defs>
    <style>
      .cls-1 {
        fill: #023a87;
        fill-rule: evenodd;
      }
    </style>
  </defs>
  <path class="cls-1" d="M409.238,1513.93a20.3,20.3,0,1,0,5.935,14.34A20.124,20.124,0,0,0,409.238,1513.93Zm-27.025,1.63a17.957,17.957,0,0,1,30.4,9.72l-6.29,6.16a4.042,4.042,0,0,0-2.014-.53,4.116,4.116,0,0,0-3.418,1.83l-9.246-2.9c0-.03,0-0.05,0-0.08a4.112,4.112,0,1,0-7.682,2.04l-4.85,5.03A18.021,18.021,0,0,1,382.213,1515.56Zm23.906,19.47a1.8,1.8,0,1,1-1.805-1.81A1.806,1.806,0,0,1,406.119,1535.03Zm-16.774-5.27a1.805,1.805,0,1,1-1.805-1.81A1.806,1.806,0,0,1,389.345,1529.76Zm18.261,11.22a17.929,17.929,0,0,1-25.393,0,17.518,17.518,0,0,1-1.826-2.14l5.244-5.44a4.077,4.077,0,0,0,5.328-1.36l9.245,2.91c0,0.02,0,.05,0,0.08a4.113,4.113,0,1,0,7.741-1.94l4.922-4.82A17.862,17.862,0,0,1,407.606,1540.98Zm-22.915-24.49,1.514,1.74a13.313,13.313,0,0,1,13.094-2.5l0.759-2.18A15.611,15.611,0,0,0,384.691,1516.49Zm18.329-1.54-1.2,1.97a13.03,13.03,0,0,1,1.742,1.27l1.5-1.75A14.977,14.977,0,0,0,403.02,1514.95Zm-5.35,26.32a13.221,13.221,0,0,1-7.717-.67l-0.859,2.15a15.629,15.629,0,0,0,9.052.78Zm26.146,5.56-1.675,1.68-4.157-4.45a28.08,28.08,0,0,0,3.552-24.27l3.3-3.23a4.114,4.114,0,0,0,6.061-3.63,4.061,4.061,0,0,0-.45-1.86l7.08-6.93v3.58h2.308v-7.48h-7.474v2.31h3.49l-6.987,6.83a4.119,4.119,0,0,0-6.192,3.55,4.136,4.136,0,0,0,.521,2.01l-2.528,2.47a27.955,27.955,0,1,0-48.7,26.84l-1.943,2.02a4.113,4.113,0,1,0,1.66,1.6l1.7-1.76c0.553,0.67,1.14,1.32,1.765,1.94a27.982,27.982,0,0,0,35.471,3.36l4.167,4.46-1.733,1.73,20.181,20.13L444,1566.96Zm2.966-35.7a1.805,1.805,0,1,1-1.8,1.8A1.806,1.806,0,0,1,426.782,1511.13Zm-58.667,40.59a1.805,1.805,0,1,1,1.8-1.81A1.808,1.808,0,0,1,368.115,1551.72Zm8.664-5.3a25.654,25.654,0,1,1,36.261,0A25.715,25.715,0,0,1,376.779,1546.42Zm35.7,3.61a28.98,28.98,0,0,0,4.1-4.09l3.927,4.2-4.09,4.1Zm20.747,24.44-16.911-16.87,7.5-7.51,16.911,16.87Zm-9.412-21.02-3.3,3.3,1.632,1.64,1.67-1.68,6.369,6.38,1.632-1.63Zm8.348,11.62,1.632-1.64,1.71,1.71-1.632,1.64Zm-55.66-7.65h2.308v2.52h-2.308v-2.52Zm0,14.1h2.308v2.52h-2.308v-2.52Zm19.007-9.25h2.308v2.52h-2.308v-2.52Zm33.074-20.77H430.9v2.51h-2.308v-2.51Zm2.618-20.05h2.308v2.52h-2.308v-2.52Zm7.648,10.62h2.308v2.51h-2.308v-2.51Z" transform="translate(-364 -1500.25)"/>
</svg>
