<svg xmlns="http://www.w3.org/2000/svg" width="70" height="72.53" viewBox="0 0 70 72.53">
  <defs>
    <style>
      .cls-1 {
        fill: #023a87;
        fill-rule: evenodd;
      }
    </style>
  </defs>
  <path id="_icon_1" data-name="icon_1" class="cls-1" d="M545.128,1170.07a1.415,1.415,0,1,1-1.416,1.41A1.412,1.412,0,0,1,545.128,1170.07Zm37.832-26.11h-2.173a1.249,1.249,0,0,1-1.247-1.25v-1.26a1.249,1.249,0,0,1,1.247-1.25H583.2a1.01,1.01,0,0,1,1.012,1.01,1.416,1.416,0,1,0,2.831,0,3.844,3.844,0,0,0-3.749-3.84v-1.21a1.416,1.416,0,1,0-2.831,0v1.22a4.089,4.089,0,0,0-3.749,4.07v1.26a4.083,4.083,0,0,0,4.078,4.08h2.174a1.249,1.249,0,0,1,1.246,1.25v1.26a1.249,1.249,0,0,1-1.246,1.25h-2.409a1.01,1.01,0,0,1-1.012-1.01,1.416,1.416,0,1,0-2.831,0,3.844,3.844,0,0,0,3.749,3.84v1.21a1.416,1.416,0,1,0,2.831,0v-1.22a4.089,4.089,0,0,0,3.749-4.07v-1.26A4.083,4.083,0,0,0,582.96,1143.96Zm20.565,17.94a5.389,5.389,0,0,0-7.121-2.76,0.019,0.019,0,0,0-.02.01l-12.918,4.11a1.415,1.415,0,1,0,1.185,2.57l12.907-4.11a2.594,2.594,0,0,1,1.955-.04,2.572,2.572,0,0,1,.11,4.75l-18.25,8.06a10.53,10.53,0,0,1-8.962-.2l-6.68-3.32a13.342,13.342,0,0,0-11.366-.26l-0.085.04-4.951-11.22,6.884-3.04a13.705,13.705,0,0,1,10.337-.33l13.434,4.93a2.37,2.37,0,0,1-1.576,4.47l-10.389-3.51a1.415,1.415,0,1,0-.907,2.68l10.388,3.52a5.335,5.335,0,0,0,1.66.27,5.2,5.2,0,0,0,1.8-10.09l-13.434-4.93a17.954,17.954,0,0,0-2.754-.76v-7.82a14.013,14.013,0,0,1,14-14h5.171a14.013,14.013,0,0,1,14,14v13.69a1.416,1.416,0,0,0,2.831,0v-13.69a16.853,16.853,0,0,0-13.592-16.52v-4.27l3.577-6.12a1.413,1.413,0,0,0-.637-2l-4.387-2a1.452,1.452,0,0,0-1.065-.04l-3.256,1.17-2.888-1.15a1.422,1.422,0,0,0-1.035-.01l-4.591,1.77a1.437,1.437,0,0,0-.821.84,1.417,1.417,0,0,0,.092,1.17l3.523,6.36v4.25a16.857,16.857,0,0,0-13.744,16.55v7.55a16.627,16.627,0,0,0-6.87,1.43l-6.936,3.06a3.5,3.5,0,0,0-4.326-1.26l-8.961,3.93a1.406,1.406,0,0,0-.847,1.3v24.05a1.427,1.427,0,0,0,.674,1.21,1.411,1.411,0,0,0,.742.21,1.322,1.322,0,0,0,.638-0.16l17.4-8.79a3.505,3.505,0,0,0,1.936-4.1l0.122-.05a10.533,10.533,0,0,1,8.963.2l6.68,3.32a13.342,13.342,0,0,0,11.366.26l18.249-8.06A5.4,5.4,0,0,0,603.525,1161.9Zm-19.185-33.81h-5.824v-2.92h5.824v2.92h0Zm-8.914-10.28,2.555-.99,2.871,1.15a1.394,1.394,0,0,0,1,.02l3.22-1.16,2.436,1.11-2.57,4.39h-7.009Zm-23.157,57.07-0.067.03-15.371,7.77v-5.74l3.981-1.96a1.415,1.415,0,0,0-1.248-2.54l-2.733,1.34v-11.93l8.117-3.56a0.679,0.679,0,0,1,.893.35l0.325,0.74h0l6.449,14.61A0.674,0.674,0,0,1,552.269,1174.88Z" transform="translate(-534 -1113.88)"/>
</svg>
