<?xml version="1.0" encoding="UTF-8"?>
<svg width="25px" height="25px" viewBox="0 0 25 25" version="1.1" xmlns="http://www.w3.org/2000/svg" xmlns:xlink="http://www.w3.org/1999/xlink">
    <!-- Generator: Sketch 51.1 (57501) - http://www.bohemiancoding.com/sketch -->
    <title>Forma_1</title>
    <desc>Created with Sketch.</desc>
    <defs></defs>
    <g id="Page-1" stroke="none" stroke-width="1" fill="none" fill-rule="evenodd">
        <g id="phone2" fill="#D51E1E">
            <path d="M12.5,0.01 C5.60196347,0.01 0.01,5.60196347 0.01,12.5 C0.01,19.3980365 5.60196347,24.99 12.5,24.99 C12.9252593,24.99 13.27,24.6452593 13.27,24.22 C13.27,23.7947407 12.9252593,23.45 12.5,23.45 C8.07113842,23.45 4.07837107,20.7821182 2.38351912,16.6903836 C0.688667168,12.598649 1.62550269,7.8888588 4.75718075,4.75718075 C7.8888588,1.62550269 12.598649,0.688667168 16.6903836,2.38351912 C20.7821182,4.07837107 23.45,8.07113842 23.45,12.5 C23.4905337,14.9559445 22.2547074,17.2572689 20.185,18.58 C19.4927356,18.9649681 18.7141024,19.1679701 17.922,19.17 C18.4164249,18.8799533 18.8338313,18.4752372 19.139,17.99 C19.2093673,17.9069336 19.2703997,17.8163909 19.321,17.72 C19.5128026,17.0921368 19.6549078,16.4501559 19.746,15.8 C19.931,14.98 16.183,13.39 15.858,14.41 C15.7412564,15.0525802 15.5620736,15.6822318 15.323,16.29 C14.989616,16.5191321 14.5376475,16.4633335 14.27,16.16 C13.416,15.43 12.461,14.36 11.624,13.51 C11.5766639,13.4633651 11.5293282,13.4166838 11.4819938,13.370016 L11.4819938,13.380016 C10.6359938,12.540016 9.56599376,11.590016 8.83799376,10.730016 C8.53097017,10.4653775 8.47553836,10.0106634 8.70999376,9.680016 C9.31671275,9.43668739 9.9466266,9.25575469 10.5899938,9.140016 C11.6039938,8.820016 10.0159938,5.070016 9.20099376,5.260016 C8.54834148,5.34381163 7.90423656,5.48434361 7.27599376,5.680016 C7.17893825,5.73081685 7.08715637,5.79111152 7.00199376,5.860016 C4.86099376,7.220016 4.58499376,10.510016 6.67399376,12.970016 C7.47399376,13.910016 8.30199376,14.820016 9.15599376,15.700016 L9.15599376,15.710016 C9.17899376,15.730016 9.20399376,15.750016 9.22899376,15.770016 C9.25399376,15.790016 9.27299376,15.820016 9.29599376,15.850016 L9.29599376,15.840016 C10.3942224,17.0516896 11.6169612,18.1443782 12.9439938,19.100016 C16.5439938,21.500016 19.3019938,20.830016 20.9269938,19.930016 C23.4916309,18.3384606 25.0331914,15.5180235 24.9879938,12.500016 C24.9824898,5.60504118 19.3949738,0.0166204254 12.5,0.01 Z" id="Forma_1"></path>
        </g>
    </g>
</svg>