<svg xmlns="http://www.w3.org/2000/svg" width="25" height="25" viewBox="0 0 25 25">
  <metadata><?xpacket begin="﻿" id="W5M0MpCehiHzreSzNTczkc9d"?>
<x:xmpmeta xmlns:x="adobe:ns:meta/" x:xmptk="Adobe XMP Core 5.6-c138 79.159824, 2016/09/14-01:09:01        ">
   <rdf:RDF xmlns:rdf="http://www.w3.org/1999/02/22-rdf-syntax-ns#">
      <rdf:Description rdf:about=""/>
   </rdf:RDF>
</x:xmpmeta>
                                                                                                    
                                                                                                    
                                                                                                    
                                                                                                    
                                                                                                    
                                                                                                    
                                                                                                    
                                                                                                    
                                                                                                    
                                                                                                    
                                                                                                    
                                                                                                    
                                                                                                    
                                                                                                    
                                                                                                    
                                                                                                    
                                                                                                    
                                                                                                    
                                                                                                    
                                                                                                    
                           
<?xpacket end="w"?></metadata>
<defs>
    <style>
      .cls-1 {
        fill: #fff;
        fill-rule: evenodd;
      }
    </style>
  </defs>
  <path id="Forma_1" data-name="Forma 1" class="cls-1" d="M991.5,4011.01a12.49,12.49,0,1,0,0,24.98,0.77,0.77,0,1,0,0-1.54,10.95,10.95,0,1,1,10.95-10.95,7.077,7.077,0,0,1-3.265,6.08,4.681,4.681,0,0,1-2.263.59,3.574,3.574,0,0,0,1.217-1.18,1.487,1.487,0,0,0,.182-0.27,12.516,12.516,0,0,0,.425-1.92c0.185-.82-3.563-2.41-3.888-1.39a10.037,10.037,0,0,1-.535,1.88,0.8,0.8,0,0,1-1.053-.13c-0.854-.73-1.809-1.8-2.646-2.65h0a111203603600.14,111203603600.14,0,0,1-.142-0.14v0.01c-0.846-.84-1.916-1.79-2.644-2.65a0.786,0.786,0,0,1-.128-1.05,9.632,9.632,0,0,1,1.88-.54c1.014-.32-0.574-4.07-1.389-3.88a11.322,11.322,0,0,0-1.925.42,1.658,1.658,0,0,0-.274.18c-2.141,1.36-2.417,4.65-.328,7.11,0.8,0.94,1.628,1.85,2.482,2.73l0,0.01c0.023,0.02.048,0.04,0.073,0.06s0.044,0.05.067,0.08l0-.01a23.3,23.3,0,0,0,3.648,3.26c3.6,2.4,6.358,1.73,7.983.83a8.593,8.593,0,0,0,4.061-7.43A12.5,12.5,0,0,0,991.5,4011.01Z" transform="translate(-979 -4011)"/>
</svg>
