<svg xmlns="http://www.w3.org/2000/svg" width="17.562" height="25" viewBox="0 0 17.562 25">
  <metadata><?xpacket begin="﻿" id="W5M0MpCehiHzreSzNTczkc9d"?>
<x:xmpmeta xmlns:x="adobe:ns:meta/" x:xmptk="Adobe XMP Core 5.6-c138 79.159824, 2016/09/14-01:09:01        ">
   <rdf:RDF xmlns:rdf="http://www.w3.org/1999/02/22-rdf-syntax-ns#">
      <rdf:Description rdf:about=""/>
   </rdf:RDF>
</x:xmpmeta>
                                                                                                    
                                                                                                    
                                                                                                    
                                                                                                    
                                                                                                    
                                                                                                    
                                                                                                    
                                                                                                    
                                                                                                    
                                                                                                    
                                                                                                    
                                                                                                    
                                                                                                    
                                                                                                    
                                                                                                    
                                                                                                    
                                                                                                    
                                                                                                    
                                                                                                    
                                                                                                    
                           
<?xpacket end="w"?></metadata>
<defs>
    <style>
      .cls-1 {
        fill: #fff;
        fill-rule: evenodd;
      }
    </style>
  </defs>
  <path id="Forma_1" data-name="Forma 1" class="cls-1" d="M989,3971.51a8.784,8.784,0,0,0-7.473,13.4l6.973,11.24a0.738,0.738,0,0,0,.622.34h0.006a0.72,0.72,0,0,0,.622-0.35l6.795-11.35A8.782,8.782,0,0,0,989,3971.51Zm6.289,12.53-6.178,10.31-6.34-10.21A7.325,7.325,0,1,1,995.289,3984.04ZM989,3975.9a4.39,4.39,0,1,0,4.392,4.39A4.4,4.4,0,0,0,989,3975.9Zm0,7.33a2.94,2.94,0,1,1,2.933-2.94A2.941,2.941,0,0,1,989,3983.23Z" transform="translate(-980.219 -3971.5)"/>
</svg>
