<svg xmlns="http://www.w3.org/2000/svg" width="40" height="40" viewBox="0 0 40 40">
  <metadata><?xpacket begin="﻿" id="W5M0MpCehiHzreSzNTczkc9d"?>
<x:xmpmeta xmlns:x="adobe:ns:meta/" x:xmptk="Adobe XMP Core 5.6-c138 79.159824, 2016/09/14-01:09:01        ">
   <rdf:RDF xmlns:rdf="http://www.w3.org/1999/02/22-rdf-syntax-ns#">
      <rdf:Description rdf:about=""/>
   </rdf:RDF>
</x:xmpmeta>
                                                                                                    
                                                                                                    
                                                                                                    
                                                                                                    
                                                                                                    
                                                                                                    
                                                                                                    
                                                                                                    
                                                                                                    
                                                                                                    
                                                                                                    
                                                                                                    
                                                                                                    
                                                                                                    
                                                                                                    
                                                                                                    
                                                                                                    
                                                                                                    
                                                                                                    
                                                                                                    
                           
<?xpacket end="w"?></metadata>
<defs>
    <style>
      .cls-1 {
        fill: #023a87;
        fill-rule: evenodd;
      }
    </style>
  </defs>
  <path id="Forma_1" data-name="Forma 1" class="cls-1" d="M1371.38,1559.51l-10.14-10.16a15.761,15.761,0,1,0-26.41-.19,0.785,0.785,0,0,0,1.32-.85,14.209,14.209,0,1,1,21.99,2.38,14.111,14.111,0,0,1-17.54,2.02,0.782,0.782,0,0,0-1.07.26,0.771,0.771,0,0,0,.25,1.07,15.747,15.747,0,0,0,8.34,2.38,13.685,13.685,0,0,0,1.69-.1,15.814,15.814,0,0,0,6.98-2.52l10.15,10.16a3.139,3.139,0,0,0,4.42-.02A3.139,3.139,0,0,0,1371.38,1559.51Zm-13.31-6.65a14.8,14.8,0,0,0,1.18-1.07c0.37-.37.72-0.76,1.05-1.16l1.98,1.98-2.23,2.23Zm12.19,9.97a1.566,1.566,0,0,1-2.22.02l-6.89-6.9,2.23-2.24,6.9,6.9A1.585,1.585,0,0,1,1370.26,1562.83Zm-32.2-12.14-0.02-.02a0.767,0.767,0,0,0-1.1,0,0.779,0.779,0,0,0,0,1.11l0.02,0.01a0.773,0.773,0,0,0,1.1,0A0.785,0.785,0,0,0,1338.06,1550.69Zm10.04-22.09a12.035,12.035,0,1,0,12.02,12.03A12.046,12.046,0,0,0,1348.1,1528.6Zm0,22.5a10.467,10.467,0,0,1-8.93-5.02l4.62-4.62,3.7,3.7a0.785,0.785,0,0,0,1.11,0l5.81-5.82v0.24a0.78,0.78,0,0,0,1.56,0v-2.13a0.781,0.781,0,0,0-.78-0.78h-2.12a0.78,0.78,0,0,0,0,1.56h0.24l-5.27,5.28-3.7-3.71a0.747,0.747,0,0,0-.55-0.23,0.764,0.764,0,0,0-.55.23l-4.81,4.81A10.456,10.456,0,1,1,1348.1,1551.1Z" transform="translate(-1332.31 -1524.88)"/>
</svg>
