<svg id="icon" xmlns="http://www.w3.org/2000/svg" width="37.312" height="61" viewBox="0 0 37.312 61">
  <metadata><?xpacket begin="﻿" id="W5M0MpCehiHzreSzNTczkc9d"?>
<x:xmpmeta xmlns:x="adobe:ns:meta/" x:xmptk="Adobe XMP Core 5.6-c138 79.159824, 2016/09/14-01:09:01        ">
   <rdf:RDF xmlns:rdf="http://www.w3.org/1999/02/22-rdf-syntax-ns#">
      <rdf:Description rdf:about=""/>
   </rdf:RDF>
</x:xmpmeta>
                                                                                                    
                                                                                                    
                                                                                                    
                                                                                                    
                                                                                                    
                                                                                                    
                                                                                                    
                                                                                                    
                                                                                                    
                                                                                                    
                                                                                                    
                                                                                                    
                                                                                                    
                                                                                                    
                                                                                                    
                                                                                                    
                                                                                                    
                                                                                                    
                                                                                                    
                                                                                                    
                           
<?xpacket end="w"?></metadata>
<defs>
    <style>
      .cls-1 {
        fill: none;
        stroke: #fff;
        stroke-width: 1px;
      }

      .cls-1, .cls-2 {
        fill-rule: evenodd;
      }

      .cls-2 {
        fill: #fff;
      }
    </style>
  </defs>
  <path id="Прямоугольник_скругл._углы_1" data-name="Прямоугольник, скругл. углы 1" class="cls-1" d="M555.317,2285.68v-34.73a3.949,3.949,0,0,1,3.946-3.95h18.946a3.949,3.949,0,0,1,3.947,3.95v39.47a3.949,3.949,0,0,1-3.947,3.95" transform="translate(-545.344 -2246.5)"/>
  <path id="Фигура_3" data-name="Фигура 3" class="cls-1" d="M565.973,2294.37v-0.79h12.236v0.79H565.973Z" transform="translate(-545.344 -2246.5)"/>
  <path id="Фигура_5" data-name="Фигура 5" class="cls-2" d="M556,2256v-1h25v1H556Z" transform="translate(-545.344 -2246.5)"/>
  <path id="Фигура_5_копия" data-name="Фигура 5 копия" class="cls-2" d="M569,2288v-1h13v1H569Z" transform="translate(-545.344 -2246.5)"/>
  <path id="Прямоугольник_скругл._углы_2" data-name="Прямоугольник, скругл. углы 2" class="cls-1" d="M564.4,2251.34h9.078a0.4,0.4,0,0,1,.394.4,0.389,0.389,0,0,1-.394.39H564.4a0.39,0.39,0,0,1-.395-0.39A0.4,0.4,0,0,1,564.4,2251.34Z" transform="translate(-545.344 -2246.5)"/>
  <path id="Фигура_2" data-name="Фигура 2" class="cls-1" d="M555,2276a16.8,16.8,0,0,0-4.978,7.53c-1.042,3.58.368,7.05,0.321,9.32a3.775,3.775,0,0,1-1.607,2.9l-0.964-.97-1.928,1.93L556.129,2307l3.213-2.57-0.964-1.29a82.048,82.048,0,0,0,8.035-9,8.111,8.111,0,0,0,1.286-4.18s2.327-12.65-1.929-13.18c-1.331-.17-3.214,1.93-3.214,1.93a27.853,27.853,0,0,1-2.249,7.07A2.877,2.877,0,0,1,558,2287h-2l-1-12v1Z" transform="translate(-545.344 -2246.5)"/>
  <path id="Фигура_6" data-name="Фигура 6" class="cls-2" d="M550.668,2294.37l0.664-.74,8,8-0.664.74Z" transform="translate(-545.344 -2246.5)"/>
  <path id="Фигура_4" data-name="Фигура 4" class="cls-1" d="M560.448,2276.21a13.242,13.242,0,0,1,5.92-1.97c2.7,0,5.131,3.15,5.131,3.15" transform="translate(-545.344 -2246.5)"/>
  <path id="Фигура_4_копия" data-name="Фигура 4 копия" class="cls-1" d="M562.026,2272.79a10.519,10.519,0,0,1,4.864-1.71c2.215,0,4.215,2.74,4.215,2.74" transform="translate(-545.344 -2246.5)"/>
  <path id="Эллипс_1" data-name="Эллипс 1" class="cls-1" d="M568.934,2288.84a1.775,1.775,0,1,1-1.776,1.78A1.78,1.78,0,0,1,568.934,2288.84Z" transform="translate(-545.344 -2246.5)"/>
</svg>
