<svg xmlns="http://www.w3.org/2000/svg" width="30" height="40.38" viewBox="0 0 30 40.38">
  <metadata><?xpacket begin="﻿" id="W5M0MpCehiHzreSzNTczkc9d"?>
<x:xmpmeta xmlns:x="adobe:ns:meta/" x:xmptk="Adobe XMP Core 5.6-c138 79.159824, 2016/09/14-01:09:01        ">
   <rdf:RDF xmlns:rdf="http://www.w3.org/1999/02/22-rdf-syntax-ns#">
      <rdf:Description rdf:about=""/>
   </rdf:RDF>
</x:xmpmeta>
                                                                                                    
                                                                                                    
                                                                                                    
                                                                                                    
                                                                                                    
                                                                                                    
                                                                                                    
                                                                                                    
                                                                                                    
                                                                                                    
                                                                                                    
                                                                                                    
                                                                                                    
                                                                                                    
                                                                                                    
                                                                                                    
                                                                                                    
                                                                                                    
                                                                                                    
                                                                                                    
                           
<?xpacket end="w"?></metadata>
<defs>
    <style>
      .cls-1 {
        fill: #00468c;
        fill-rule: evenodd;
      }
    </style>
  </defs>
  <path id="Forma_1" data-name="Forma 1" class="cls-1" d="M1185.21,1556.68h-28.42a0.783,0.783,0,0,1-.79-0.78v-35.89a3.694,3.694,0,0,1,3.69-3.69h22.62a3.694,3.694,0,0,1,3.69,3.69v35.89A0.783,0.783,0,0,1,1185.21,1556.68Zm-27.64-1.57h26.86v-2.1h-26.86v2.1Zm0-3.67h26.86v-31.43a2.121,2.121,0,0,0-2.12-2.12h-22.62a2.121,2.121,0,0,0-2.12,2.12v31.43h0Zm11.25-1.82h-0.41a0.79,0.79,0,0,1-.79-0.78,0.8,0.8,0,0,1,.79-0.79h0.41a0.79,0.79,0,0,1,.78.79A0.781,0.781,0,0,1,1168.82,1549.62Zm-3.36,0h-0.41a0.783,0.783,0,0,1-.79-0.78,0.792,0.792,0,0,1,.79-0.79h0.41a0.79,0.79,0,0,1,.78.79A0.781,0.781,0,0,1,1165.46,1549.62Zm-3.37,0h-0.41a0.781,0.781,0,0,1-.78-0.78,0.79,0.79,0,0,1,.78-0.79h0.41a0.8,0.8,0,0,1,.79.79A0.79,0.79,0,0,1,1162.09,1549.62Zm18.23-1.09h-6.08a0.79,0.79,0,0,1-.78-0.79v-3.92a0.781,0.781,0,0,1,.78-0.78h6.08a0.781,0.781,0,0,1,.78.78v3.92A0.79,0.79,0,0,1,1180.32,1548.53Zm-5.29-1.58h4.5v-2.34h-4.5v2.34h0Zm-6.21.17h-0.41a0.785,0.785,0,1,1,0-1.57h0.41A0.785,0.785,0,0,1,1168.82,1547.12Zm-3.36,0h-0.41a0.785,0.785,0,1,1,0-1.57h0.41A0.785,0.785,0,0,1,1165.46,1547.12Zm-3.37,0h-0.41a0.785,0.785,0,0,1,0-1.57h0.41A0.785,0.785,0,1,1,1162.09,1547.12Zm6.73-2.51h-0.41a0.785,0.785,0,1,1,0-1.57h0.41A0.785,0.785,0,0,1,1168.82,1544.61Zm-3.36,0h-0.41a0.785,0.785,0,1,1,0-1.57h0.41A0.785,0.785,0,0,1,1165.46,1544.61Zm-3.37,0h-0.41a0.785,0.785,0,0,1,0-1.57h0.41A0.785,0.785,0,1,1,1162.09,1544.61Zm18.23-3.57h-18.64a0.783,0.783,0,0,1-.78-0.79v-17.86a0.781,0.781,0,0,1,.78-0.78h18.64a0.781,0.781,0,0,1,.78.78v17.86A0.783,0.783,0,0,1,1180.32,1541.04Zm-17.85-1.57h17.06v-16.29h-17.06v16.29h0Z" transform="translate(-1156 -1516.31)"/>
</svg>
