<svg xmlns="http://www.w3.org/2000/svg" width="25.53" height="21.88" viewBox="0 0 25.53 21.88">
  <metadata><?xpacket begin="﻿" id="W5M0MpCehiHzreSzNTczkc9d"?>
<x:xmpmeta xmlns:x="adobe:ns:meta/" x:xmptk="Adobe XMP Core 5.6-c138 79.159824, 2016/09/14-01:09:01        ">
   <rdf:RDF xmlns:rdf="http://www.w3.org/1999/02/22-rdf-syntax-ns#">
      <rdf:Description rdf:about=""/>
   </rdf:RDF>
</x:xmpmeta>
                                                                                                    
                                                                                                    
                                                                                                    
                                                                                                    
                                                                                                    
                                                                                                    
                                                                                                    
                                                                                                    
                                                                                                    
                                                                                                    
                                                                                                    
                                                                                                    
                                                                                                    
                                                                                                    
                                                                                                    
                                                                                                    
                                                                                                    
                                                                                                    
                                                                                                    
                                                                                                    
                           
<?xpacket end="w"?></metadata>
<defs>
    <style>
      .cls-1 {
        fill: #fff;
        fill-rule: evenodd;
      }
    </style>
  </defs>
  <path class="cls-1" d="M1501.91,3982.49l5.89,2.16,2.28,7.2a0.7,0.7,0,0,0,1.1.33l3.28-2.63a1.006,1.006,0,0,1,1.2-.04l5.92,4.23a0.7,0.7,0,0,0,1.09-.41l4.34-20.51a0.7,0.7,0,0,0-.93-0.78l-24.18,9.17A0.682,0.682,0,0,0,1501.91,3982.49Zm7.8,1.01,11.51-6.97a0.2,0.2,0,0,1,.25.31l-9.5,8.68a1.862,1.862,0,0,0-.61,1.16l-0.33,2.35a0.3,0.3,0,0,1-.58.05l-1.24-4.3A1.113,1.113,0,0,1,1509.71,3983.5Z" transform="translate(-1501.47 -3972)"/>
</svg>
