<svg xmlns="http://www.w3.org/2000/svg" width="32.62" height="40" viewBox="0 0 32.62 40">
  <metadata><?xpacket begin="﻿" id="W5M0MpCehiHzreSzNTczkc9d"?>
<x:xmpmeta xmlns:x="adobe:ns:meta/" x:xmptk="Adobe XMP Core 5.6-c138 79.159824, 2016/09/14-01:09:01        ">
   <rdf:RDF xmlns:rdf="http://www.w3.org/1999/02/22-rdf-syntax-ns#">
      <rdf:Description rdf:about=""/>
   </rdf:RDF>
</x:xmpmeta>
                                                                                                    
                                                                                                    
                                                                                                    
                                                                                                    
                                                                                                    
                                                                                                    
                                                                                                    
                                                                                                    
                                                                                                    
                                                                                                    
                                                                                                    
                                                                                                    
                                                                                                    
                                                                                                    
                                                                                                    
                                                                                                    
                                                                                                    
                                                                                                    
                                                                                                    
                                                                                                    
                           
<?xpacket end="w"?></metadata>
<defs>
    <style>
      .cls-1 {
        fill: #fff;
        fill-rule: evenodd;
      }
    </style>
  </defs>
  <path class="cls-1" d="M1346.62,1226.31a0.992,0.992,0,0,0-.99-0.99h-7.94a0.99,0.99,0,0,0,0,1.98h7.94A1,1,0,0,0,1346.62,1226.31Zm21.69-.99h-7.94a0.99,0.99,0,0,0,0,1.98h7.94a1,1,0,0,0,.99-0.99A0.986,0.986,0,0,0,1368.31,1225.32Zm-15.31-5.39a1,1,0,0,0,.99-1v-7.94a0.99,0.99,0,1,0-1.98,0v7.94A1,1,0,0,0,1353,1219.93Zm5.21,2.16a1.019,1.019,0,0,0,.7-0.29l5.62-5.62a1,1,0,0,0,0-1.41,0.984,0.984,0,0,0-1.4,0l-5.62,5.63a0.984,0.984,0,0,0,0,1.4A1,1,0,0,0,1358.21,1222.09Zm-11.12-.29a1,1,0,0,0,.7.29,0.99,0.99,0,0,0,.7-1.69l-5.62-5.63a0.984,0.984,0,0,0-1.4,0,1,1,0,0,0,0,1.41Zm17.81,10.76a4.126,4.126,0,0,0-2.66-1h-5.67v-4.01a4.823,4.823,0,0,0-1.7-4.14,5.347,5.347,0,0,0-4.31-.54,1,1,0,0,0-.7.94v4.84a4.454,4.454,0,0,1-2.09,3.71,8.488,8.488,0,0,1-2.28,1.15l-0.1.02a2.031,2.031,0,0,0-1.53-.68h-3.76a2.042,2.042,0,0,0-2.04,2.04v12.35a2.049,2.049,0,0,0,2.04,2.04h3.78a1.962,1.962,0,0,0,1.3-.48,4.149,4.149,0,0,0,2.91,1.2h11.83a5.4,5.4,0,0,0,3.03-.83,4.342,4.342,0,0,0,1.84-3.19l1.53-9.5A4.253,4.253,0,0,0,1364.9,1232.56Zm-20.96,14.68a0.065,0.065,0,0,1-.06.06h-3.78a0.065,0.065,0,0,1-.06-0.06v-12.35a0.058,0.058,0,0,1,.06-0.06h3.78a0.058,0.058,0,0,1,.06.06v12.35Zm20.42-11.06-1.52,9.51a0.076,0.076,0,0,1-.01.04c-0.07.57-.28,2.3-2.91,2.3h-11.83a2.206,2.206,0,0,1-2.15-1.85,0.359,0.359,0,0,0-.02-0.11v-10.62l0.06-.02a0.227,0.227,0,0,1,.04-0.01,9.724,9.724,0,0,0,2.85-1.41,6.455,6.455,0,0,0,2.97-5.36v-4.02a2.712,2.712,0,0,1,1.85.37,3.009,3.009,0,0,1,.89,2.55v4.99a0.992,0.992,0,0,0,.99.99h6.67a2.145,2.145,0,0,1,1.37.52A2.321,2.321,0,0,1,1364.36,1236.18Z" transform="translate(-1336.69 -1210)"/>
</svg>
