<?xml version="1.0" encoding="utf-8"?>
<!-- Generator: Adobe Illustrator 17.0.0, SVG Export Plug-In . SVG Version: 6.00 Build 0)  -->
<!DOCTYPE svg PUBLIC "-//W3C//DTD SVG 1.1//EN" "http://www.w3.org/Graphics/SVG/1.1/DTD/svg11.dtd">
<svg version="1.1" id="Слой_1" xmlns="http://www.w3.org/2000/svg" xmlns:xlink="http://www.w3.org/1999/xlink" x="0px" y="0px"
	 width="87px" height="44.9px" viewBox="0 0 87 44.9" enable-background="new 0 0 87 44.9" xml:space="preserve">
<g>
	<defs>
		<rect id="SVGID_1_" width="87" height="44.9"/>
	</defs>
	<clipPath id="SVGID_2_">
		<use xlink:href="#SVGID_1_"  overflow="visible"/>
	</clipPath>
	<g clip-path="url(#SVGID_2_)">
		<defs>
			<rect id="SVGID_3_" y="0" width="87" height="44.9"/>
		</defs>
		<clipPath id="SVGID_4_">
			<use xlink:href="#SVGID_3_"  overflow="visible"/>
		</clipPath>
		<g opacity="0.35" clip-path="url(#SVGID_4_)">
			<g>
				<defs>
					<rect id="SVGID_5_" x="0.467" y="1.102" width="85.333" height="43.167"/>
				</defs>
				<clipPath id="SVGID_6_">
					<use xlink:href="#SVGID_5_"  overflow="visible"/>
				</clipPath>
				<polygon clip-path="url(#SVGID_6_)" fill="#6AD3F5" points="0.467,37.935 0.966,15.45 2,14.999 5.049,12.935 6.633,11.102 
					7.466,9.768 11,9.018 11.466,7.219 11.466,5.433 14,5.433 15.746,5.095 15.746,1.518 20.549,1.102 79.718,1.102 80.799,2.716 
					82.133,5.433 84.282,6.352 85.799,7.219 85.799,29.9 84.282,29.9 81.562,29.9 81.562,33.9 77.133,33.9 77.383,38.4 
					74.049,39.602 73.308,40.435 72.466,41.852 72.133,43.435 70.633,44.269 7.216,44.269 5.883,42.435 5.299,41.185 3.633,39.519 
					2,38.4 				"/>
			</g>
		</g>
		<path clip-path="url(#SVGID_4_)" fill="#023A87" d="M9.1,21.2h31.5c0.3,0,0.5-0.2,0.5-0.5c0-0.3-0.2-0.5-0.5-0.5H9.1
			c-0.3,0-0.5,0.2-0.5,0.5C8.6,21,8.8,21.2,9.1,21.2"/>
		<path clip-path="url(#SVGID_4_)" fill="#023A87" d="M9.1,27.6H32c0.3,0,0.5-0.2,0.5-0.5c0-0.3-0.2-0.5-0.5-0.5H9.1
			c-0.3,0-0.5,0.2-0.5,0.5C8.6,27.4,8.8,27.6,9.1,27.6"/>
		<path clip-path="url(#SVGID_4_)" fill="#023A87" d="M9.1,33.9h27.8c0.3,0,0.5-0.2,0.5-0.5c0-0.3-0.2-0.5-0.5-0.5H9.1
			c-0.3,0-0.5,0.2-0.5,0.5C8.6,33.7,8.8,33.9,9.1,33.9"/>
		<path clip-path="url(#SVGID_4_)" fill="#023A87" d="M1,39.4c2.5,0,4.5,2,4.5,4.5c0,0.6,0.4,1,1,1H72c0.6,0,1-0.4,1-1
			c0-2.5,2-4.5,4.5-4.5c0.6,0,1-0.4,1-1V15c0-0.6-0.4-1-1-1C75,14,73,12,73,9.5c0-0.6-0.4-1-1-1H6.5c-0.6,0-1,0.4-1,1
			C5.5,12,3.5,14,1,14c-0.6,0-1,0.4-1,1v23.4C0,39,0.5,39.4,1,39.4 M2,15.9c2.8-0.4,5-2.6,5.4-5.4h41.1v0.2v1c0,0.4,0.3,0.8,0.8,0.8
			s0.8-0.3,0.8-0.8v-1v-0.2h21c0.4,2.8,2.6,5,5.4,5.4v21.6c-2.8,0.4-5,2.6-5.4,5.4h-21v-0.101v-1C50.1,41.4,49.8,41,49.3,41
			s-0.8,0.299-0.8,0.799v1V42.9H7.4c-0.4-2.8-2.6-5-5.4-5.4V15.9z"/>
		<path clip-path="url(#SVGID_4_)" fill="#023A87" d="M11,6h64.6c0.4,2.8,2.6,5,5.4,5.4v22.5c0,0.6,0.399,1,1,1c0.6,0,1-0.4,1-1
			V10.5c0-0.6-0.4-1-1-1c-2.5,0-4.5-2-4.5-4.5c0-0.6-0.4-1-1-1H11c-0.6,0-1,0.4-1,1C10,5.6,10.4,6,11,6"/>
		<path clip-path="url(#SVGID_4_)" fill="#023A87" d="M49.3,38.4c0.4,0,0.8-0.3,0.8-0.8v-1c0-0.4-0.3-0.8-0.8-0.8s-0.8,0.3-0.8,0.8
			v1C48.5,38.1,48.9,38.4,49.3,38.4"/>
		<path clip-path="url(#SVGID_4_)" fill="#023A87" d="M49.3,33.2c0.4,0,0.8-0.3,0.8-0.8v-1c0-0.4-0.3-0.8-0.8-0.8s-0.8,0.3-0.8,0.8
			v1C48.5,32.9,48.9,33.2,49.3,33.2"/>
		<path clip-path="url(#SVGID_4_)" fill="#023A87" d="M49.3,22.8c0.4,0,0.8-0.3,0.8-0.8v-1c0-0.4-0.3-0.8-0.8-0.8s-0.8,0.3-0.8,0.8
			v1C48.5,22.5,48.9,22.8,49.3,22.8"/>
		<path clip-path="url(#SVGID_4_)" fill="#023A87" d="M49.3,28c0.4,0,0.8-0.3,0.8-0.8v-1c0-0.4-0.3-0.8-0.8-0.8s-0.8,0.3-0.8,0.8v1
			C48.5,27.7,48.9,28,49.3,28"/>
		<path clip-path="url(#SVGID_4_)" fill="#023A87" d="M49.3,17.6c0.4,0,0.8-0.3,0.8-0.8v-1c0-0.4-0.3-0.8-0.8-0.8s-0.8,0.3-0.8,0.8
			v1C48.5,17.3,48.9,17.6,49.3,17.6"/>
		<path clip-path="url(#SVGID_4_)" fill="#023A87" d="M12,5v4.438c0,0.55-0.45,1-1,0.999c-0.55,0-1-0.449-1-0.999V5
			c0-0.55,0.45-1,1-1C11.55,4,12,4.45,12,5"/>
		<path clip-path="url(#SVGID_4_)" fill="#023A87" d="M81.938,34.9h-4.437c-0.55,0-1-0.45-1-1c0-0.55,0.45-1,1-1h4.437
			c0.55,0,1,0.45,1,1C82.938,34.45,82.488,34.9,81.938,34.9"/>
		<path clip-path="url(#SVGID_4_)" fill="#023A87" d="M57.7,31c1.6-0.3,3.1-0.7,4.6-1.2l7-2.6c1.4-0.5,2.7-1.4,3.799-2.5
			c0.401-0.4,0.201-1.1-0.399-1.2l-2.4-0.4l-4.5,2.1l-8.701-1.5l-1.5,0.6l5.8,3L56.8,29.4l-3-0.3L52,29.8l3.3,1.6L57.7,31z"/>
		<path clip-path="url(#SVGID_4_)" fill="#023A87" d="M15,2h64.6C80,4.8,82.2,7,85,7.4v22.5c0,0.6,0.399,1,1,1c0.6,0,1-0.4,1-1V6.5
			c0-0.6-0.4-1-1-1c-2.5,0-4.5-2-4.5-4.5c0-0.6-0.4-1-1-1H15c-0.6,0-1,0.4-1,1C14,1.6,14.4,2,15,2"/>
		<path clip-path="url(#SVGID_4_)" fill="#023A87" d="M16.001,1v3.434c0,0.55-0.45,1-1,1H15c-0.55,0-1-0.45-1-1V1c0-0.55,0.45-1,1-1
			h0.001C15.551,0,16.001,0.45,16.001,1"/>
		<path clip-path="url(#SVGID_4_)" fill="#023A87" d="M86,30.9h-3.438c-0.549,0-0.999-0.45-0.999-1c0-0.55,0.45-1,0.999-1H86
			c0.55,0,1,0.45,1,1C87,30.45,86.55,30.9,86,30.9"/>
	</g>
</g>
</svg>
