<?xml version="1.0" encoding="utf-8"?>
<!-- Generator: Adobe Illustrator 17.0.0, SVG Export Plug-In . SVG Version: 6.00 Build 0)  -->
<!DOCTYPE svg PUBLIC "-//W3C//DTD SVG 1.1//EN" "http://www.w3.org/Graphics/SVG/1.1/DTD/svg11.dtd">
<svg version="1.1" id="Слой_1" xmlns="http://www.w3.org/2000/svg" xmlns:xlink="http://www.w3.org/1999/xlink" x="0px" y="0px"
	 width="83px" height="40.9px" viewBox="0 0 83 40.9" enable-background="new 0 0 83 40.9" xml:space="preserve">
<g>
	<defs>
		<rect id="SVGID_1_" width="83" height="40.9"/>
	</defs>
	<clipPath id="SVGID_2_">
		<use xlink:href="#SVGID_1_"  overflow="visible"/>
	</clipPath>
	<g clip-path="url(#SVGID_2_)">
		<defs>
			<rect id="SVGID_3_" y="0" width="83" height="40.9"/>
		</defs>
		<clipPath id="SVGID_4_">
			<use xlink:href="#SVGID_3_"  overflow="visible"/>
		</clipPath>
		<path clip-path="url(#SVGID_4_)" d="M11,2h64.6C76,4.8,78.2,7,81,7.4v22.5c0,0.6,0.399,1,1,1c0.6,0,1-0.4,1-1V6.5c0-0.6-0.4-1-1-1
			c-2.5,0-4.5-2-4.5-4.5c0-0.6-0.4-1-1-1H11c-0.6,0-1,0.4-1,1C10,1.6,10.4,2,11,2"/>
		<g opacity="0.5" clip-path="url(#SVGID_4_)">
			<g>
				<defs>
					<rect id="SVGID_5_" x="1.113" y="1.04" width="80.625" height="38.687"/>
				</defs>
				<clipPath id="SVGID_6_">
					<use xlink:href="#SVGID_5_"  overflow="visible"/>
				</clipPath>
				<path clip-path="url(#SVGID_6_)" fill="#A57FD3" d="M1.112,33.915V11.54l1.562-0.937L6.612,7.04l0.375-1.062l3.75-0.438
					l0.563-4.5h64.875l1.437,3.125c0,0,1.25,1.375,1.563,1.5c0.312,0.125,2.562,1.5,2.562,1.5V29.4l-4.125,0.5l-0.062,4.015
					l-2.875,1.437l-1.625,1.313l-0.438,1.125l-0.437,0.625l-0.25,1.312H6.799l-1.187-1.562l-0.438-1.062
					c0,0-0.187-1.188-0.749-1.313c-0.563-0.125-3.313-1.125-3.313-1.125V33.915z"/>
			</g>
		</g>
		<path clip-path="url(#SVGID_4_)" fill="#023A87" d="M9.1,17.2h31.5c0.3,0,0.5-0.2,0.5-0.5c0-0.3-0.2-0.5-0.5-0.5H9.1
			c-0.3,0-0.5,0.2-0.5,0.5C8.6,17,8.8,17.2,9.1,17.2"/>
		<path clip-path="url(#SVGID_4_)" fill="#023A87" d="M9.1,23.6H32c0.3,0,0.5-0.2,0.5-0.5c0-0.3-0.2-0.5-0.5-0.5H9.1
			c-0.3,0-0.5,0.2-0.5,0.5C8.6,23.4,8.8,23.6,9.1,23.6"/>
		<path clip-path="url(#SVGID_4_)" fill="#023A87" d="M9.1,29.9h27.8c0.3,0,0.5-0.2,0.5-0.5c0-0.3-0.2-0.5-0.5-0.5H9.1
			c-0.3,0-0.5,0.2-0.5,0.5C8.6,29.7,8.8,29.9,9.1,29.9"/>
		<path clip-path="url(#SVGID_4_)" fill="#023A87" d="M1,35.4c2.5,0,4.5,2,4.5,4.5c0,0.6,0.4,1,1,1H72c0.6,0,1-0.4,1-1
			c0-2.5,2-4.5,4.5-4.5c0.6,0,1-0.4,1-1V11c0-0.6-0.4-1-1-1C75,10,73,8,73,5.5c0-0.6-0.4-1-1-1H6.5c-0.6,0-1,0.4-1,1
			C5.5,8,3.5,10,1,10c-0.6,0-1,0.4-1,1v23.4C0,35,0.5,35.4,1,35.4 M2,11.9c2.8-0.4,5-2.6,5.4-5.4h41.1v0.2v1c0,0.4,0.3,0.8,0.8,0.8
			s0.8-0.3,0.8-0.8v-1V6.5h21c0.4,2.8,2.6,5,5.4,5.4v21.6c-2.8,0.4-5,2.6-5.4,5.4h-21v-0.101v-1C50.1,37.4,49.8,37,49.3,37
			s-0.8,0.299-0.8,0.799v1V38.9H7.4c-0.4-2.8-2.6-5-5.4-5.4V11.9z"/>
		<path clip-path="url(#SVGID_4_)" fill="#023A87" d="M49.3,34.4c0.4,0,0.8-0.3,0.8-0.8v-1c0-0.4-0.3-0.8-0.8-0.8s-0.8,0.3-0.8,0.8
			v1C48.5,34.1,48.9,34.4,49.3,34.4"/>
		<path clip-path="url(#SVGID_4_)" fill="#023A87" d="M49.3,29.2c0.4,0,0.8-0.3,0.8-0.8v-1c0-0.4-0.3-0.8-0.8-0.8s-0.8,0.3-0.8,0.8
			v1C48.5,28.9,48.9,29.2,49.3,29.2"/>
		<path clip-path="url(#SVGID_4_)" fill="#023A87" d="M49.3,18.8c0.4,0,0.8-0.3,0.8-0.8v-1c0-0.4-0.3-0.8-0.8-0.8s-0.8,0.3-0.8,0.8
			v1C48.5,18.5,48.9,18.8,49.3,18.8"/>
		<path clip-path="url(#SVGID_4_)" fill="#023A87" d="M49.3,24c0.4,0,0.8-0.3,0.8-0.8v-1c0-0.4-0.3-0.8-0.8-0.8s-0.8,0.3-0.8,0.8v1
			C48.5,23.7,48.9,24,49.3,24"/>
		<path clip-path="url(#SVGID_4_)" fill="#023A87" d="M49.3,13.6c0.4,0,0.8-0.3,0.8-0.8v-1c0-0.4-0.3-0.8-0.8-0.8s-0.8,0.3-0.8,0.8
			v1C48.5,13.3,48.9,13.6,49.3,13.6"/>
		<path clip-path="url(#SVGID_4_)" fill="#023A87" d="M12,1v4.438c0,0.55-0.45,1-1,0.999c-0.55,0-1-0.449-1-0.999V1
			c0-0.55,0.45-1,1-1C11.55,0,12,0.45,12,1"/>
		<path clip-path="url(#SVGID_4_)" fill="#023A87" d="M81.938,30.9h-4.437c-0.55,0-1-0.45-1-1c0-0.55,0.45-1,1-1h4.437
			c0.55,0,1,0.45,1,1C82.938,30.45,82.488,30.9,81.938,30.9"/>
		<path clip-path="url(#SVGID_4_)" fill="#023A87" d="M57.7,27c1.6-0.3,3.1-0.7,4.6-1.2l7-2.6c1.4-0.5,2.7-1.4,3.799-2.5
			c0.401-0.4,0.201-1.1-0.399-1.2l-2.4-0.4l-4.5,2.1l-8.701-1.5l-1.5,0.6l5.8,3L56.8,25.4l-3-0.3L52,25.8l3.3,1.6L57.7,27z"/>
		<path clip-path="url(#SVGID_4_)" fill="#023A87" d="M11,2h64.6C76,4.8,78.2,7,81,7.4v22.5c0,0.6,0.399,1,1,1c0.6,0,1-0.4,1-1V6.5
			c0-0.6-0.4-1-1-1c-2.5,0-4.5-2-4.5-4.5c0-0.6-0.4-1-1-1H11c-0.6,0-1,0.4-1,1C10,1.6,10.4,2,11,2"/>
		<path clip-path="url(#SVGID_4_)" fill="#023A87" d="M9.1,17.2h31.5c0.3,0,0.5-0.2,0.5-0.5c0-0.3-0.2-0.5-0.5-0.5H9.1
			c-0.3,0-0.5,0.2-0.5,0.5C8.6,17,8.8,17.2,9.1,17.2"/>
		<path clip-path="url(#SVGID_4_)" fill="#023A87" d="M9.1,23.6H32c0.3,0,0.5-0.2,0.5-0.5c0-0.3-0.2-0.5-0.5-0.5H9.1
			c-0.3,0-0.5,0.2-0.5,0.5C8.6,23.4,8.8,23.6,9.1,23.6"/>
		<path clip-path="url(#SVGID_4_)" fill="#023A87" d="M9.1,29.9h27.8c0.3,0,0.5-0.2,0.5-0.5c0-0.3-0.2-0.5-0.5-0.5H9.1
			c-0.3,0-0.5,0.2-0.5,0.5C8.6,29.7,8.8,29.9,9.1,29.9"/>
		<path clip-path="url(#SVGID_4_)" fill="#023A87" d="M1,35.4c2.5,0,4.5,2,4.5,4.5c0,0.6,0.4,1,1,1H72c0.6,0,1-0.4,1-1
			c0-2.5,2-4.5,4.5-4.5c0.6,0,1-0.4,1-1V11c0-0.6-0.4-1-1-1C75,10,73,8,73,5.5c0-0.6-0.4-1-1-1H6.5c-0.6,0-1,0.4-1,1
			C5.5,8,3.5,10,1,10c-0.6,0-1,0.4-1,1v23.4C0,35,0.5,35.4,1,35.4 M2,11.9c2.8-0.4,5-2.6,5.4-5.4h41.1v0.2v1c0,0.4,0.3,0.8,0.8,0.8
			s0.8-0.3,0.8-0.8v-1V6.5h21c0.4,2.8,2.6,5,5.4,5.4v21.6c-2.8,0.4-5,2.6-5.4,5.4h-21v-0.101v-1C50.1,37.4,49.8,37,49.3,37
			s-0.8,0.299-0.8,0.799v1V38.9H7.4c-0.4-2.8-2.6-5-5.4-5.4V11.9z"/>
		<path clip-path="url(#SVGID_4_)" fill="#023A87" d="M49.3,34.4c0.4,0,0.8-0.3,0.8-0.8v-1c0-0.4-0.3-0.8-0.8-0.8s-0.8,0.3-0.8,0.8
			v1C48.5,34.1,48.9,34.4,49.3,34.4"/>
		<path clip-path="url(#SVGID_4_)" fill="#023A87" d="M49.3,29.2c0.4,0,0.8-0.3,0.8-0.8v-1c0-0.4-0.3-0.8-0.8-0.8s-0.8,0.3-0.8,0.8
			v1C48.5,28.9,48.9,29.2,49.3,29.2"/>
		<path clip-path="url(#SVGID_4_)" fill="#023A87" d="M49.3,18.8c0.4,0,0.8-0.3,0.8-0.8v-1c0-0.4-0.3-0.8-0.8-0.8s-0.8,0.3-0.8,0.8
			v1C48.5,18.5,48.9,18.8,49.3,18.8"/>
		<path clip-path="url(#SVGID_4_)" fill="#023A87" d="M49.3,24c0.4,0,0.8-0.3,0.8-0.8v-1c0-0.4-0.3-0.8-0.8-0.8s-0.8,0.3-0.8,0.8v1
			C48.5,23.7,48.9,24,49.3,24"/>
		<path clip-path="url(#SVGID_4_)" fill="#023A87" d="M49.3,13.6c0.4,0,0.8-0.3,0.8-0.8v-1c0-0.4-0.3-0.8-0.8-0.8s-0.8,0.3-0.8,0.8
			v1C48.5,13.3,48.9,13.6,49.3,13.6"/>
		<path clip-path="url(#SVGID_4_)" fill="#023A87" d="M57.7,27c1.6-0.3,3.1-0.7,4.6-1.2l7-2.6c1.4-0.5,2.7-1.4,3.799-2.5
			c0.401-0.4,0.201-1.1-0.399-1.2l-2.4-0.4l-4.5,2.1l-8.701-1.5l-1.5,0.6l5.8,3L56.8,25.4l-3-0.3L52,25.8l3.3,1.6L57.7,27z"/>
	</g>
</g>
</svg>
