<?xml version="1.0" encoding="utf-8"?>
<!-- Generator: Adobe Illustrator 17.0.0, SVG Export Plug-In . SVG Version: 6.00 Build 0)  -->
<!DOCTYPE svg PUBLIC "-//W3C//DTD SVG 1.1//EN" "http://www.w3.org/Graphics/SVG/1.1/DTD/svg11.dtd">
<svg version="1.1" id="Слой_1" xmlns="http://www.w3.org/2000/svg" xmlns:xlink="http://www.w3.org/1999/xlink" x="0px" y="0px"
	 width="78.5px" height="36.4px" viewBox="0 0 78.5 36.4" enable-background="new 0 0 78.5 36.4" xml:space="preserve">
<g>
	<defs>
		<rect id="SVGID_1_" width="78.5" height="36.4"/>
	</defs>
	<clipPath id="SVGID_2_">
		<use xlink:href="#SVGID_1_"  overflow="visible"/>
	</clipPath>
	<g clip-path="url(#SVGID_2_)">
		<defs>
			<rect id="SVGID_3_" y="0" width="78.5" height="36.4"/>
		</defs>
		<clipPath id="SVGID_4_">
			<use xlink:href="#SVGID_3_"  overflow="visible"/>
		</clipPath>
		<g opacity="0.5" clip-path="url(#SVGID_4_)">
			<g>
				<defs>
					<rect id="SVGID_5_" x="0.667" y="1.636" width="76.917" height="33.75"/>
				</defs>
				<clipPath id="SVGID_6_">
					<use xlink:href="#SVGID_5_"  overflow="visible"/>
				</clipPath>
				<path clip-path="url(#SVGID_6_)" fill="#FDC210" d="M0.666,29.385L1.249,6.5l2.5-0.615l1.834-2.333l1.083-1.917h64.5
					l0.917,1.333l1.833,2.417L76.499,6.5l0.75,1.3l0.334,21.585h-1.834c0,0-2.466,1.5-2.441,1.834
					c0.025,0.333-1.309,1.916-1.309,1.916V34.4l-0.833,0.985H6.499l-1.166-2.666c0,0-1-1-1.417-1.334c-0.417-0.333-1-1-1.333-1.083
					C2.249,30.219,0.666,29.385,0.666,29.385"/>
			</g>
		</g>
		<path clip-path="url(#SVGID_4_)" fill="#023A87" d="M9.1,12.7h31.5c0.3,0,0.5-0.2,0.5-0.5c0-0.3-0.2-0.5-0.5-0.5H9.1
			c-0.3,0-0.5,0.2-0.5,0.5C8.6,12.5,8.8,12.7,9.1,12.7"/>
		<path clip-path="url(#SVGID_4_)" fill="#023A87" d="M9.1,19.1H32c0.3,0,0.5-0.2,0.5-0.5c0-0.3-0.2-0.5-0.5-0.5H9.1
			c-0.3,0-0.5,0.2-0.5,0.5C8.6,18.9,8.8,19.1,9.1,19.1"/>
		<path clip-path="url(#SVGID_4_)" fill="#023A87" d="M9.1,25.4h27.8c0.3,0,0.5-0.2,0.5-0.5s-0.2-0.5-0.5-0.5H9.1
			c-0.3,0-0.5,0.2-0.5,0.5S8.8,25.4,9.1,25.4"/>
		<path clip-path="url(#SVGID_4_)" fill="#023A87" d="M1,30.9c2.5,0,4.5,2,4.5,4.5c0,0.6,0.4,1,1,1H72c0.6,0,1-0.4,1-1
			c0-2.5,2-4.5,4.5-4.5c0.6,0,1-0.4,1-1V6.5c0-0.6-0.4-1-1-1C75,5.5,73,3.5,73,1c0-0.6-0.4-1-1-1H6.5c-0.6,0-1,0.4-1,1
			c0,2.5-2,4.5-4.5,4.5c-0.6,0-1,0.4-1,1v23.4C0,30.5,0.5,30.9,1,30.9 M2,7.4C4.8,7,7,4.8,7.4,2h41.1v0.2v1c0,0.4,0.3,0.8,0.8,0.8
			s0.8-0.3,0.8-0.8v-1V2h21c0.4,2.8,2.6,5,5.4,5.4V29c-2.8,0.4-5,2.6-5.4,5.4h-21v-0.1v-1c0-0.4-0.3-0.8-0.8-0.8s-0.8,0.3-0.8,0.8v1
			v0.1H7.4C7,31.6,4.8,29.4,2,29V7.4z"/>
		<path clip-path="url(#SVGID_4_)" fill="#023A87" d="M49.3,29.9c0.4,0,0.8-0.3,0.8-0.8v-1c0-0.4-0.3-0.8-0.8-0.8s-0.8,0.3-0.8,0.8
			v1C48.5,29.6,48.901,29.9,49.3,29.9"/>
		<path clip-path="url(#SVGID_4_)" fill="#023A87" d="M49.3,24.7c0.4,0,0.8-0.3,0.8-0.8v-1c0-0.4-0.3-0.8-0.8-0.8s-0.8,0.3-0.8,0.8
			v1C48.5,24.4,48.901,24.7,49.3,24.7"/>
		<path clip-path="url(#SVGID_4_)" fill="#023A87" d="M49.3,14.3c0.4,0,0.8-0.3,0.8-0.8v-1c0-0.4-0.3-0.8-0.8-0.8s-0.8,0.3-0.8,0.8
			v1C48.5,14,48.901,14.3,49.3,14.3"/>
		<path clip-path="url(#SVGID_4_)" fill="#023A87" d="M49.3,19.5c0.4,0,0.8-0.3,0.8-0.8v-1c0-0.4-0.3-0.8-0.8-0.8s-0.8,0.3-0.8,0.8
			v1C48.5,19.2,48.901,19.5,49.3,19.5"/>
		<path clip-path="url(#SVGID_4_)" fill="#023A87" d="M49.3,9.1c0.4,0,0.8-0.3,0.8-0.8v-1c0-0.4-0.3-0.8-0.8-0.8s-0.8,0.3-0.8,0.8v1
			C48.5,8.8,48.901,9.1,49.3,9.1"/>
		<path clip-path="url(#SVGID_4_)" fill="#023A87" d="M57.7,22.5c1.6-0.3,3.1-0.699,4.6-1.199l7-2.601c1.4-0.5,2.7-1.4,3.799-2.5
			C73.5,15.8,73.3,15.101,72.7,15l-2.4-0.399L65.8,16.7l-8.701-1.5l-1.5,0.6l5.801,3l-4.6,2.1l-3-0.299l-1.8,0.7l3.3,1.599
			L57.7,22.5z"/>
	</g>
</g>
</svg>
