<svg xmlns="http://www.w3.org/2000/svg" width="40" height="40" viewBox="0 0 40 40">
  <metadata><?xpacket begin="﻿" id="W5M0MpCehiHzreSzNTczkc9d"?>
<x:xmpmeta xmlns:x="adobe:ns:meta/" x:xmptk="Adobe XMP Core 5.6-c138 79.159824, 2016/09/14-01:09:01        ">
   <rdf:RDF xmlns:rdf="http://www.w3.org/1999/02/22-rdf-syntax-ns#">
      <rdf:Description rdf:about=""/>
   </rdf:RDF>
</x:xmpmeta>
                                                                                                    
                                                                                                    
                                                                                                    
                                                                                                    
                                                                                                    
                                                                                                    
                                                                                                    
                                                                                                    
                                                                                                    
                                                                                                    
                                                                                                    
                                                                                                    
                                                                                                    
                                                                                                    
                                                                                                    
                                                                                                    
                                                                                                    
                                                                                                    
                                                                                                    
                                                                                                    
                           
<?xpacket end="w"?></metadata>
<defs>
    <style>
      .cls-1 {
        fill: #fff;
        fill-rule: evenodd;
      }
    </style>
  </defs>
  <path id="Forma_1_копия_2" data-name="Forma 1 копия 2" class="cls-1" d="M1372.16,2292.33h-38.32a0.83,0.83,0,0,0,0,1.66h38.32A0.83,0.83,0,0,0,1372.16,2292.33Zm-31.66-10h-4.99a0.837,0.837,0,0,0-.84.83v10a0.837,0.837,0,0,0,.84.83h4.99a0.837,0.837,0,0,0,.84-0.83v-10A0.837,0.837,0,0,0,1340.5,2282.33Zm-0.83,10h-3.33V2284h3.33v8.33h0ZM1350.5,2274h-5a0.828,0.828,0,0,0-.83.83v18.33a0.828,0.828,0,0,0,.83.83h5a0.828,0.828,0,0,0,.83-0.83v-18.33A0.828,0.828,0,0,0,1350.5,2274Zm-0.83,18.33h-3.33v-16.66h3.33v16.66h0Zm10.83-15h-5a0.834,0.834,0,0,0-.83.83v15a0.828,0.828,0,0,0,.83.83h5a0.828,0.828,0,0,0,.83-0.83v-15A0.834,0.834,0,0,0,1360.5,2277.33Zm-0.84,15h-3.33V2279h3.33v13.33Zm10.83-24.99h-4.99a0.837,0.837,0,0,0-.84.83v24.99a0.837,0.837,0,0,0,.84.83h4.99a0.837,0.837,0,0,0,.84-0.83v-24.99A0.837,0.837,0,0,0,1370.49,2267.34Zm-0.83,24.99h-3.33V2269h3.33v23.33ZM1338,2269a3.335,3.335,0,1,0,3.34,3.33A3.342,3.342,0,0,0,1338,2269Zm0,5a1.665,1.665,0,1,1,1.67-1.67A1.664,1.664,0,0,1,1338,2274Zm10-13.33a3.335,3.335,0,1,0,3.33,3.33A3.329,3.329,0,0,0,1348,2260.67Zm0,5a1.665,1.665,0,1,1,1.67-1.67A1.664,1.664,0,0,1,1348,2265.67Zm10-1.67a3.335,3.335,0,1,0,3.33,3.34A3.337,3.337,0,0,0,1358,2264Zm0,5a1.665,1.665,0,1,1,1.66-1.66A1.671,1.671,0,0,1,1358,2269Zm10-14.99a3.33,3.33,0,1,0,3.33,3.33A3.337,3.337,0,0,0,1368,2254.01Zm0,4.99a1.665,1.665,0,1,1,1.66-1.66A1.664,1.664,0,0,1,1368,2259Zm-1.18-.49a0.845,0.845,0,0,0-1.18,0l-6.46,6.47a0.83,0.83,0,0,0,.59,1.42,0.818,0.818,0,0,0,.58-0.24l6.47-6.47A0.845,0.845,0,0,0,1366.82,2258.51Zm-10.84,6.9-5.35-1.52a0.829,0.829,0,0,0-1.03.57,0.84,0.84,0,0,0,.58,1.03l5.35,1.53a0.852,0.852,0,0,0,.23.03A0.835,0.835,0,0,0,1355.98,2265.41Zm-9.28-.37a0.828,0.828,0,0,0-1.17-.13l-6.28,5.01a0.828,0.828,0,0,0-.13,1.17,0.838,0.838,0,0,0,1.17.13l6.28-5.01A0.829,0.829,0,0,0,1346.7,2265.04Z" transform="translate(-1333 -2254)"/>
</svg>
