<svg id="money" xmlns="http://www.w3.org/2000/svg" width="67" height="66" viewBox="0 0 67 66">
  <defs>
    <style>
      .cls-1, .cls-3 {
        fill: #fff;
        stroke: #023a87;
        stroke-width: 2px;
      }

      .cls-1 {
        fill-rule: evenodd;
      }

      .cls-2 {
        fill: #ffd200;
      }
    </style>
  </defs>
  <path id="Фигура_519" data-name="Фигура 519" class="cls-1" d="M833,981h9v43H784a7.862,7.862,0,0,1-3-2,5.636,5.636,0,0,1-1-3V973a10.884,10.884,0,0,1,2-3,10.3,10.3,0,0,1,3-1.943h48V981H786s-2.858-.086-4-1a11.243,11.243,0,0,1-2-2" transform="translate(-779 -959)"/>
  <rect id="Прямоугольник_1" data-name="Прямоугольник 1" class="cls-2" x="32" y="33" width="35" height="17"/>
  <circle id="Эллипс_1" data-name="Эллипс 1" class="cls-3" cx="41" cy="42" r="5"/>
  <path id="Фигура_520" data-name="Фигура 520" class="cls-1" d="M792,981l18-21,17,21H792Z" transform="translate(-779 -959)"/>
</svg>
