<svg xmlns="http://www.w3.org/2000/svg" width="11" height="21.5" viewBox="0 0 11 21.5"><defs><style>.cls-1{fill:#fff;fill-rule:evenodd}</style></defs><path class="cls-1" d="M.35 11.45h2.39v9.69a.348.348 0 0 0 .35.35h4.05a.348.348 0 0 0 .35-.35V11.5h2.75a.348.348 0 0 0 .35-.31l.42-3.57a.344.344 0 0 0-.09-.27.363.363 0 0 0-.26-.11H7.49V5a.944.944 0 0 1 1.1-1.02h2.07a.346.346 0 0 0 .35-.34V.36a.346.346 0 0 0-.35-.34H7.81c-.02 0-.07-.01-.13-.01A5.541 5.541 0 0 0 4.1 1.34a3.708 3.708 0 0 0-1.25 3.28v2.62H.35a.348.348 0 0 0-.36.34v3.53a.348.348 0 0 0 .36.34z"/></svg>