<svg xmlns="http://www.w3.org/2000/svg" width="74.62" height="80" viewBox="0 0 74.62 80"><defs><style>.cls-1{fill:#023a87;fill-rule:evenodd}</style></defs><path class="cls-1" d="M55.97 49.33A1.338 1.338 0 0 0 54.63 48h-7.99a1.335 1.335 0 0 0 0 2.67h7.99a1.34 1.34 0 0 0 1.34-1.34zm-5.33-34.66V8a1.335 1.335 0 0 0-2.67 0v6.67a6.671 6.671 0 0 0 6.66 6.66h12v25.34a1.33 1.33 0 0 0 2.66 0V20a1.329 1.329 0 0 0-1.33-1.33H54.63a4 4 0 0 1-3.99-4zM54.63 32H43.97a1.335 1.335 0 0 0 0 2.67h10.66a1.335 1.335 0 1 0 0-2.67zm-14.65 1.33A1.338 1.338 0 0 0 38.64 32h-7.99a1.335 1.335 0 0 0 0 2.67h7.99a1.34 1.34 0 0 0 1.34-1.34zM30.65 40a1.335 1.335 0 0 0 0 2.67h2.66a1.335 1.335 0 1 0 0-2.67h-2.66zm0-13.33h13.32a1.335 1.335 0 1 0 0-2.67H30.65a1.335 1.335 0 0 0 0 2.67zm7.99 16h13.33a1.335 1.335 0 0 0 0-2.67H38.64a1.335 1.335 0 0 0 0 2.67zm8 13.33a1.335 1.335 0 0 0 0 2.67h2.66a1.335 1.335 0 1 0 0-2.67h-2.66zm-5.33-8H30.65a1.335 1.335 0 0 0 0 2.67h10.66a1.335 1.335 0 0 0 0-2.67zm0 8H30.65a1.335 1.335 0 0 0 0 2.67h10.66a1.335 1.335 0 0 0 0-2.67zm31.72-1.08l-2.66-2.67a5.024 5.024 0 0 0-7.22 0L45.7 69.72a1.339 1.339 0 0 0-.39.95v8A1.329 1.329 0 0 0 46.64 80h7.99a1.339 1.339 0 0 0 .95-.39l17.45-17.47a4.878 4.878 0 0 0 0-7.22zm-11.6 2.83l2.11 2.11-11.57 11.59-2.12-2.12zM47.97 77.33v-6.11l6.11 6.11h-6.11zm8-1.88l-2.12-2.12 11.58-11.58 2.11 2.11zm15.18-15.2l-1.72 1.73-6.11-6.12 1.72-1.72a2.265 2.265 0 0 1 3.44 0l2.67 2.67a2.231 2.231 0 0 1 0 3.44zM41.31 77.33H6.662a4 4 0 0 1-4-4V6.67a4 4 0 0 1 4-4H48.75l12.94 12.94a1.333 1.333 0 1 0 1.88-1.89L50.25.39A1.339 1.339 0 0 0 49.3 0H6.662A6.672 6.672 0 0 0 0 6.67v66.66A6.672 6.672 0 0 0 6.662 80H41.31a1.335 1.335 0 0 0 0-2.67zm0-13.33H30.65a1.335 1.335 0 0 0 0 2.67h10.66a1.335 1.335 0 0 0 0-2.67zM23.99 25.33A1.338 1.338 0 0 0 22.65 24h-7.99a1.329 1.329 0 0 0-1.33 1.33v8a1.332 1.332 0 0 0 1.33 1.34h7.99a1.34 1.34 0 0 0 1.34-1.34v-8zM21.32 32h-5.33v-5.33h5.33V32zm-6.66 34.67h7.99a1.332 1.332 0 0 0 1.33-1.34v-8A1.329 1.329 0 0 0 22.65 56h-7.99a1.338 1.338 0 0 0-1.34 1.33v8a1.34 1.34 0 0 0 1.34 1.34zm1.33-8h5.33V64h-5.33v-5.33zm.39-8.39a1.333 1.333 0 0 0 .94.39.528.528 0 0 0 .13-.01 1.312 1.312 0 0 0 .98-.59l5.33-8a1.334 1.334 0 1 0-2.22-1.48l-4.42 6.65-1.52-1.52a1.333 1.333 0 0 0-1.88 1.89z"/></svg>