<svg height="512pt" viewBox="0 -8 512 512" width="512pt" xmlns="http://www.w3.org/2000/svg"><defs><style>.cls-1{fill:#023a87;fill-rule:evenodd}</style></defs><path class="cls-1" d="M24 360a7.99 7.99 0 0 1-8-8V48c0-4.426 3.574-8 8-8s8 3.574 8 8v304c0 4.426-3.574 8-8 8zm0 0"/><path class="cls-1" d="M24 56a7.99 7.99 0 0 1-8-8c0-13.23 10.77-24 24-24 4.426 0 8 3.574 8 8s-3.574 8-8 8c-4.414 0-8 3.586-8 8 0 4.426-3.574 8-8 8zm464 304a7.99 7.99 0 0 1-8-8V48c0-4.426 3.574-8 8-8s8 3.574 8 8v304c0 4.426-3.574 8-8 8zm0 0"/><path class="cls-1" d="M488 56a7.99 7.99 0 0 1-8-8c0-4.414-3.586-8-8-8-4.426 0-8-3.574-8-8s3.574-8 8-8c13.23 0 24 10.77 24 24 0 4.426-3.574 8-8 8zm0 0"/><path class="cls-1" d="M472 40H40c-4.426 0-8-3.574-8-8s3.574-8 8-8h432c4.426 0 8 3.574 8 8s-3.574 8-8 8zm32 344H8a7.99 7.99 0 0 1-8-8v-24c0-4.426 3.574-8 8-8h496c4.426 0 8 3.574 8 8v24c0 4.426-3.574 8-8 8zM16 368h480v-8H16zm0 0"/><path class="cls-1" d="M168 496a7.892 7.892 0 0 1-2.688-.473c-4.167-1.488-6.335-6.062-4.84-10.214l40-112c1.481-4.168 6.071-6.36 10.215-4.84 4.168 1.488 6.336 6.062 4.84 10.214l-40 112C174.367 493.962 171.29 496 168 496zm-40 0a7.892 7.892 0 0 1-2.688-.473c-4.167-1.488-6.335-6.062-4.84-10.214l40-112c1.481-4.168 6.071-6.36 10.215-4.84 4.168 1.488 6.336 6.062 4.84 10.214l-40 112C134.367 493.962 131.29 496 128 496zm0 0"/><path class="cls-1" d="M168 496h-40c-4.426 0-8-3.574-8-8s3.574-8 8-8h40c4.426 0 8 3.574 8 8s-3.574 8-8 8zm176 0a7.982 7.982 0 0 1-7.527-5.313l-40-112c-1.496-4.16.68-8.734 4.84-10.214 4.136-1.504 8.734.687 10.214 4.84l40 112c1.496 4.16-.68 8.734-4.84 10.214-.878.32-1.8.473-2.687.473zm40 0a7.982 7.982 0 0 1-7.527-5.313l-40-112c-1.496-4.16.68-8.734 4.84-10.214 4.136-1.504 8.734.687 10.214 4.84l40 112c1.496 4.16-.68 8.734-4.84 10.214-.878.32-1.8.473-2.687.473zm0 0"/><path class="cls-1" d="M384 496h-40c-4.426 0-8-3.574-8-8s3.574-8 8-8h40c4.426 0 8 3.574 8 8s-3.574 8-8 8zm-62.855-64h-130.29c-4.421 0-8-3.574-8-8s3.579-8 8-8h130.282c4.422 0 8 3.574 8 8s-3.578 8-7.992 8zm8.565 24H182.29c-4.427 0-8-3.574-8-8s3.573-8 8-8h147.42c4.427 0 8 3.574 8 8s-3.573 8-8 8zM288 40h-64a7.99 7.99 0 0 1-8-8V8c0-4.426 3.574-8 8-8h64c4.426 0 8 3.574 8 8v24c0 4.426-3.574 8-8 8zm-56-16h48v-8h-48zM104 304c-17.648 0-32-14.352-32-32s14.352-32 32-32 32 14.352 32 32-14.352 32-32 32zm0-48c-8.824 0-16 7.176-16 16s7.176 16 16 16 16-7.176 16-16-7.176-16-16-16zm280-64c-17.648 0-32-14.352-32-32s14.352-32 32-32 32 14.352 32 32-14.352 32-32 32zm0-48c-8.824 0-16 7.176-16 16s7.176 16 16 16 16-7.176 16-16-7.176-16-16-16zm0 0"/><path class="cls-1" d="M384 168a7.99 7.99 0 0 1-8-8V88c0-4.426 3.574-8 8-8s8 3.574 8 8v72c0 4.426-3.574 8-8 8zm0 0"/><path class="cls-1" d="M432 96h-48c-4.426 0-8-3.574-8-8s3.574-8 8-8h48c4.426 0 8 3.574 8 8s-3.574 8-8 8zm0 32h-48c-4.426 0-8-3.574-8-8s3.574-8 8-8h48c4.426 0 8 3.574 8 8s-3.574 8-8 8zm0 0"/><path class="cls-1" d="M432.008 128a8.003 8.003 0 0 1-7.168-4.426l-8-16a7.992 7.992 0 0 1 0-7.16l8-16c1.976-3.95 6.785-5.535 10.734-3.574a8 8 0 0 1 3.578 10.734L432.945 104l6.207 12.426a8 8 0 0 1-3.578 10.734 8.028 8.028 0 0 1-3.566.84zM144 240a7.949 7.949 0 0 1-5.313-2.023c-3.304-2.93-3.597-7.993-.664-11.29C140.734 223.633 205.816 152 328 152c4.426 0 8 3.574 8 8s-3.574 8-8 8c-115.078 0-177.406 68.625-178.023 69.313A7.953 7.953 0 0 1 144 240zm0 0"/><path class="cls-1" d="M312 184a7.984 7.984 0 0 1-5.656-2.344 7.99 7.99 0 0 1 0-11.312l16-16c3.129-3.13 8.183-3.13 11.312 0s3.13 8.183 0 11.312l-16 16A7.984 7.984 0 0 1 312 184zm0 0"/><path class="cls-1" d="M328 168a7.984 7.984 0 0 1-5.656-2.344l-16-16c-3.13-3.129-3.13-8.183 0-11.312s8.183-3.13 11.312 0l16 16a7.99 7.99 0 0 1 0 11.312A7.984 7.984 0 0 1 328 168zM104.238 280.008c-4.422 0-8.039-3.574-8.039-8 0-4.422 3.535-8 7.953-8h.086c4.418 0 8 3.578 8 8 0 4.426-3.582 8-8 8zM120 168a7.984 7.984 0 0 1-5.656-2.344l-32-32c-3.13-3.129-3.13-8.183 0-11.312s8.183-3.13 11.312 0l32 32a7.99 7.99 0 0 1 0 11.312A7.984 7.984 0 0 1 120 168zm0 0"/><path class="cls-1" d="M88 168a7.984 7.984 0 0 1-5.656-2.344 7.99 7.99 0 0 1 0-11.312l32-32c3.129-3.13 8.183-3.13 11.312 0s3.13 8.183 0 11.312l-32 32A7.984 7.984 0 0 1 88 168zm152-56a7.984 7.984 0 0 1-5.656-2.344l-32-32c-3.13-3.129-3.13-8.183 0-11.312s8.183-3.13 11.312 0l32 32a7.99 7.99 0 0 1 0 11.312A7.984 7.984 0 0 1 240 112zm0 0"/><path class="cls-1" d="M208 112a7.984 7.984 0 0 1-5.656-2.344 7.99 7.99 0 0 1 0-11.312l32-32c3.129-3.13 8.183-3.13 11.312 0s3.13 8.183 0 11.312l-32 32A7.984 7.984 0 0 1 208 112zm48 208a7.984 7.984 0 0 1-5.656-2.344l-32-32c-3.13-3.129-3.13-8.183 0-11.312s8.183-3.13 11.312 0l32 32a7.99 7.99 0 0 1 0 11.312A7.984 7.984 0 0 1 256 320zm0 0"/><path class="cls-1" d="M224 320a7.984 7.984 0 0 1-5.656-2.344 7.99 7.99 0 0 1 0-11.312l32-32c3.129-3.13 8.183-3.13 11.312 0s3.13 8.183 0 11.312l-32 32A7.984 7.984 0 0 1 224 320zm152-40a7.984 7.984 0 0 1-5.656-2.344l-32-32c-3.13-3.129-3.13-8.183 0-11.312s8.183-3.13 11.312 0l32 32a7.99 7.99 0 0 1 0 11.312A7.984 7.984 0 0 1 376 280zm0 0"/><path class="cls-1" d="M344 280a7.984 7.984 0 0 1-5.656-2.344 7.99 7.99 0 0 1 0-11.312l32-32c3.129-3.13 8.183-3.13 11.312 0s3.13 8.183 0 11.312l-32 32A7.984 7.984 0 0 1 344 280zm0 0"/></svg>