<svg xmlns="http://www.w3.org/2000/svg" width="49.187" height="40" viewBox="0 0 49.187 40"><defs><style>.cls-1{fill:#fff;fill-rule:evenodd}</style></defs><path id="Forma_1" data-name="Forma 1" class="cls-1" d="M978.969 1214.98a19.961 19.961 0 0 0-25.508-2.31.961.961 0 0 0 1.1 1.58 18.121 18.121 0 0 1 5.936-2.69 13.173 13.173 0 0 0-1.088 1.6 27.276 27.276 0 0 0-2.958 9.43.961.961 0 0 0 1.9.28q.176-1.185.419-2.31h12.13a40.465 40.465 0 0 1 .849 7.59h-2.692a.965.965 0 0 0 0 1.93h2.692a40.465 40.465 0 0 1-.849 7.59h-4.757a.96.96 0 1 0 0 1.92h4.278a23.71 23.71 0 0 1-.9 2.61c-1.218 2.94-2.778 4.72-4.331 4.96h-.715c-2.712-.41-5.283-5.46-6.2-12.31a.961.961 0 0 0-1.905.26 28.015 28.015 0 0 0 2.937 9.79 13.345 13.345 0 0 0 1.16 1.74 17.9 17.9 0 0 1-6.42-3.02.961.961 0 1 0-1.149 1.54 19.961 19.961 0 0 0 11.932 3.95c.455 0 .912-.02 1.37-.05a19.991 19.991 0 0 0 12.769-34.08zm3.908 13.17h-9.2a42.7 42.7 0 0 0-.809-7.59h7.892a17.9 17.9 0 0 1 2.117 7.59zm-23.632-9.51a20.287 20.287 0 0 1 1.824-4.52c1.147-1.98 2.484-3.08 3.764-3.08 1.669 0 3.379 1.82 4.692 4.99a23.71 23.71 0 0 1 .9 2.61h-11.18zm12.055-3.35a15.138 15.138 0 0 0-2.125-3.72 18.048 18.048 0 0 1 8.435 4.77 18.486 18.486 0 0 1 1.95 2.3h-7.142a26.3 26.3 0 0 0-1.118-3.35zm6.31 26.6a17.874 17.874 0 0 1-8.4 4.73 15.123 15.123 0 0 0 2.094-3.68 26.3 26.3 0 0 0 1.118-3.35h7.142a18.4 18.4 0 0 1-1.954 2.3zm-4.744-4.22a42.7 42.7 0 0 0 .809-7.59h9.2a17.916 17.916 0 0 1-2.118 7.59h-7.893zm-10.077.28a.965.965 0 0 0-1.359 0 .963.963 0 0 0 0 1.36.965.965 0 0 0 1.359 0 .961.961 0 0 0 0-1.36zm2.807-9.42a8.077 8.077 0 0 0-6.371-3.15h-3.489l-3.522-8.47a.956.956 0 0 0-.887-.59H947.7a.96.96 0 0 0-.961.96v8.1h-3.508l-2.455-2.94a.963.963 0 0 0-.738-.35h-3.46a.976.976 0 0 0-.831.48.962.962 0 0 0 0 .96l3.177 5.58-3.177 5.58a.962.962 0 0 0 0 .96.976.976 0 0 0 .831.48h3.46a.963.963 0 0 0 .738-.35l2.456-2.94h3.507v8.11a.961.961 0 0 0 .961.96h3.63a.955.955 0 0 0 .887-.59l3.523-8.48h3.489a8.076 8.076 0 0 0 6.37-3.15.948.948 0 0 0 .001-1.16zm-16.938-10.29h2.027l2.969 7.14h-5v-7.14zm2.027 21.75h-2.027v-7.16h5zm8.541-9.07h-16.3a.581.581 0 0 0-.186-.01.969.969 0 0 0-.692.34l-2.465 2.95h-1.357l2.63-4.61a.977.977 0 0 0 0-.96l-2.63-4.61h1.357l2.465 2.95a.939.939 0 0 0 .694.34 1.142 1.142 0 0 0 .185-.01h16.3a2.545 2.545 0 1 1-.001 3.62zM937.4 1216.6a.962.962 0 0 0-1.641.68.976.976 0 0 0 .282.68.965.965 0 0 0 1.359 0 .979.979 0 0 0 .281-.68.962.962 0 0 0-.281-.68zm6.913-.28h-4.085a.96.96 0 1 0 0 1.92h4.085a.96.96 0 1 0-.001-1.92zm-.94 23.67h-5.933a.96.96 0 1 0 0 1.92h5.932a.96.96 0 1 0 0-1.92z" transform="translate(-935.625 -1209.09)"/></svg>