<svg xmlns="http://www.w3.org/2000/svg" width="21.78" height="21.44" viewBox="0 0 21.78 21.44"><defs><style>.cls-1{fill:#fff;fill-rule:evenodd}</style></defs><path id="Forma_1" data-name="Forma 1" class="cls-1" d="M1489.03 3973.36a2.7 2.7 0 0 0-1.97-.81h-16.21a2.7 2.7 0 0 0-1.97.81 2.633 2.633 0 0 0-.83 1.94v15.94a2.617 2.617 0 0 0 .83 1.94 2.7 2.7 0 0 0 1.97.81h16.21a2.7 2.7 0 0 0 1.97-.81 2.617 2.617 0 0 0 .83-1.94v-15.94a2.633 2.633 0 0 0-.83-1.94zm-13.15 6.92a4.509 4.509 0 0 1 6.19 0 4.039 4.039 0 0 1 0 5.9 4.536 4.536 0 0 1-6.19 0 4.039 4.039 0 0 1 0-5.9zm11.51 10.39a.832.832 0 0 1-.26.61.853.853 0 0 1-.61.24h-15.17a.844.844 0 0 1-.62-.24.822.822 0 0 1-.25-.61v-9.05h2a5.929 5.929 0 0 0-.28 1.83 6.081 6.081 0 0 0 1.98 4.57 6.716 6.716 0 0 0 4.79 1.9 6.92 6.92 0 0 0 3.41-.87 6.64 6.64 0 0 0 2.47-2.35 6.17 6.17 0 0 0 .9-3.25 5.929 5.929 0 0 0-.28-1.83h1.92v9.05zm0-12.47a.944.944 0 0 1-.29.69.976.976 0 0 1-.69.28h-2.47a.982.982 0 0 1-.7-.28.935.935 0 0 1-.28-.69v-2.3a.929.929 0 0 1 .28-.68.942.942 0 0 1 .7-.28h2.47a.973.973 0 0 1 .98.96v2.3z" transform="translate(-1468.06 -3972.56)"/></svg>