<svg width="25" height="25" viewBox="0 0 25 25" xmlns="http://www.w3.org/2000/svg"><title>Forma_1</title><path d="M12.5.01C5.602.01.01 5.602.01 12.5c0 6.898 5.592 12.49 12.49 12.49a.77.77 0 1 0 0-1.54A10.95 10.95 0 1 1 23.45 12.5a7.077 7.077 0 0 1-3.265 6.08 4.681 4.681 0 0 1-2.263.59c.494-.29.912-.695 1.217-1.18a1.54 1.54 0 0 0 .182-.27c.192-.628.334-1.27.425-1.92.185-.82-3.563-2.41-3.888-1.39a10.037 10.037 0 0 1-.535 1.88.8.8 0 0 1-1.053-.13c-.854-.73-1.809-1.8-2.646-2.65l-.142-.14v.01c-.846-.84-1.916-1.79-2.644-2.65a.786.786 0 0 1-.128-1.05 9.632 9.632 0 0 1 1.88-.54c1.014-.32-.574-4.07-1.389-3.88-.653.084-1.297.224-1.925.42-.097.05-.189.111-.274.18-2.141 1.36-2.417 4.65-.328 7.11.8.94 1.628 1.85 2.482 2.73v.01l.073.06c.025.02.044.05.067.08v-.01a23.3 23.3 0 0 0 3.648 3.26c3.6 2.4 6.358 1.73 7.983.83a8.593 8.593 0 0 0 4.061-7.43C24.982 5.605 19.395.017 12.5.01z" fill="#D51E1E" fill-rule="evenodd"/></svg>