<svg xmlns="http://www.w3.org/2000/svg" width="17.562" height="25" viewBox="0 0 17.562 25"><defs><style>.cls-1{fill:#fff;fill-rule:evenodd}</style></defs><path id="Forma_1" data-name="Forma 1" class="cls-1" d="M989 3971.51a8.784 8.784 0 0 0-7.473 13.4l6.973 11.24a.738.738 0 0 0 .622.34h.006a.72.72 0 0 0 .622-.35l6.795-11.35a8.782 8.782 0 0 0-7.545-13.28zm6.289 12.53l-6.178 10.31-6.34-10.21a7.325 7.325 0 1 1 12.518-.1zM989 3975.9a4.39 4.39 0 1 0 4.392 4.39 4.4 4.4 0 0 0-4.392-4.39zm0 7.33a2.94 2.94 0 1 1 2.933-2.94 2.941 2.941 0 0 1-2.933 2.94z" transform="translate(-980.219 -3971.5)"/></svg>