<svg xmlns="http://www.w3.org/2000/svg" width="69.968" height="63.5" viewBox="0 0 69.968 63.5"><defs><style>.cls-1{fill:#023a87;fill-rule:evenodd}</style></defs><path id="_icon_2" data-name="icon_2" class="cls-1" d="M995.477 1138.71a1.211 1.211 0 0 0-1.211-1.01h-23.027a12.959 12.959 0 0 0-4.847-7l-.727-4.19h5.683a3 3 0 0 0 .381-5.98 2.41 2.41 0 0 0-.38 0h-6.666l-.485-2.72c-.121-1.48-1.03-4.12-3.635-4.12h-.134c-2.617 0-3.526 2.65-3.635 4.12l-.473 2.72h-6.666a3 3 0 0 0-.38 5.98 2.41 2.41 0 0 0 .38 0h5.575l-.727 4.19a12.92 12.92 0 0 0-4.848 7h-22.82a1.213 1.213 0 0 0-1.212 1.01 6.542 6.542 0 0 0 4.848 7.28c.994.31 2.569.75 4.7 1.3v.23a4.774 4.774 0 0 0 9.126 1.97c4 .94 7.5 1.73 8.568 1.97a10.266 10.266 0 0 0 14.518.67c.233-.22.455-.44.667-.67.788-.18 4.484-1.01 8.738-2a4.775 4.775 0 0 0 9.125-1.98v-.23c2.146-.55 3.721-.98 4.7-1.3a6.536 6.536 0 0 0 4.864-7.24zm-24.141-15.78a.575.575 0 0 1 .647.48.566.566 0 0 1-.481.65.463.463 0 0 1-.166 0h-5.986l-.194-1.13h6.18zm-13.452 2.58l.618-3.56.667-3.88s.182-1.98 1.272-1.94h.121c1.091 0 1.212 1.93 1.212 1.94v.12l1.939 11.13a9.817 9.817 0 0 0-6.508 0zm-8.229-1.45a.567.567 0 0 1-.533-.54l-.012-.02a.573.573 0 0 1 .57-.57h6.192l-.194 1.13h-6.023zm-9.634 25.81h-.061a2.394 2.394 0 1 1 .061 0zm4.678-2.78a4.748 4.748 0 0 0-8.762-2.12c-2.158-.55-3.733-.98-4.7-1.29a4.159 4.159 0 0 1-3.223-3.54h21.208a14.113 14.113 0 0 0 1.527 8.35zm15.8 5.3h-.049c-4.944 0-8.956-4.75-8.956-10.6s4.012-10.61 8.956-10.61 8.956 4.76 8.956 10.61-3.996 10.6-8.906 10.6zm20.663-2.52h-.109a2.3 2.3 0 1 1 .112 0zm8.713-6.19h-.1c-.958.31-2.546.74-4.7 1.29a4.751 4.751 0 0 0-8.762 2.12l-6.059 1.42a14.351 14.351 0 0 0 1.612-6.72 14.966 14.966 0 0 0-.1-1.65H993.1a4.166 4.166 0 0 1-3.222 3.54zm-24.771-5.75h-9.465a1.215 1.215 0 0 0 0 2.43h9.465a1.215 1.215 0 0 0 .003-2.43zm-17.868 16.71h-.008a1.214 1.214 0 0 0-1.6.61l-9.126 20.21a1.213 1.213 0 1 0 2.206 1.01l9.15-20.23a1.217 1.217 0 0 0-.619-1.6zm37.246 20.83l-9.149-20.22a1.211 1.211 0 1 0-2.206 1l9.15 20.23a1.213 1.213 0 1 0 2.208-1.01zm-24.1-19.12a1.209 1.209 0 0 0-1.212 1.21v5.06a1.212 1.212 0 1 0 2.424.01v-5.07a1.21 1.21 0 0 0-1.213-1.21zm0 12.35a1.218 1.218 0 0 0-1.212 1.22v5.06a1.212 1.212 0 0 0 2.424 0v-5.06a1.219 1.219 0 0 0-1.213-1.22z" transform="translate(-925.563 -1113.69)"/></svg>