<svg xmlns="http://www.w3.org/2000/svg" width="25.53" height="21.88" viewBox="0 0 25.53 21.88"><defs><style>.cls-1{fill:#fff;fill-rule:evenodd}</style></defs><path class="cls-1" d="M.44 10.49l5.89 2.16 2.28 7.2a.7.7 0 0 0 1.1.33l3.28-2.63a1.006 1.006 0 0 1 1.2-.04l5.92 4.23a.7.7 0 0 0 1.09-.41L25.54.82a.7.7 0 0 0-.93-.78L.43 9.21a.682.682 0 0 0 .01 1.28zm7.8 1.01l11.51-6.97a.2.2 0 0 1 .25.31l-9.5 8.68a1.862 1.862 0 0 0-.61 1.16l-.33 2.35a.3.3 0 0 1-.58.05l-1.24-4.3a1.113 1.113 0 0 1 .5-1.28z"/></svg>