<svg xmlns="http://www.w3.org/2000/svg" width="32.62" height="40" viewBox="0 0 32.62 40"><defs><style>.cls-1{fill:#fff;fill-rule:evenodd}</style></defs><path class="cls-1" d="M9.93 16.31a.992.992 0 0 0-.99-.99H1a.99.99 0 0 0 0 1.98h7.94a1 1 0 0 0 .99-.99zm21.69-.99h-7.94a.99.99 0 0 0 0 1.98h7.94a1 1 0 0 0 .99-.99.986.986 0 0 0-.99-.99zM16.31 9.93a1 1 0 0 0 .99-1V.99a.99.99 0 1 0-1.98 0v7.94a1 1 0 0 0 .99 1zm5.21 2.16a1.019 1.019 0 0 0 .7-.29l5.62-5.62a1 1 0 0 0 0-1.41.984.984 0 0 0-1.4 0l-5.62 5.63a.984.984 0 0 0 0 1.4 1 1 0 0 0 .7.29zM10.4 11.8a1 1 0 0 0 .7.29.99.99 0 0 0 .7-1.69L6.18 4.77a.984.984 0 0 0-1.4 0 1 1 0 0 0 0 1.41zm17.81 10.76a4.126 4.126 0 0 0-2.66-1h-5.67v-4.01a4.823 4.823 0 0 0-1.7-4.14 5.347 5.347 0 0 0-4.31-.54 1 1 0 0 0-.7.94v4.84a4.454 4.454 0 0 1-2.09 3.71 8.488 8.488 0 0 1-2.28 1.15l-.1.02a2.031 2.031 0 0 0-1.53-.68H3.41a2.042 2.042 0 0 0-2.04 2.04v12.35a2.049 2.049 0 0 0 2.04 2.04h3.78a1.962 1.962 0 0 0 1.3-.48A4.149 4.149 0 0 0 11.4 40h11.83a5.4 5.4 0 0 0 3.03-.83 4.342 4.342 0 0 0 1.84-3.19l1.53-9.5a4.253 4.253 0 0 0-1.42-3.92zM7.25 37.24a.065.065 0 0 1-.06.06H3.41a.065.065 0 0 1-.06-.06V24.89a.058.058 0 0 1 .06-.06h3.78a.058.058 0 0 1 .06.06v12.35zm20.42-11.06l-1.52 9.51a.076.076 0 0 1-.01.04c-.07.57-.28 2.3-2.91 2.3H11.4a2.206 2.206 0 0 1-2.15-1.85.359.359 0 0 0-.02-.11V25.45l.06-.02a.227.227 0 0 1 .04-.01 9.724 9.724 0 0 0 2.85-1.41 6.455 6.455 0 0 0 2.97-5.36v-4.02A2.712 2.712 0 0 1 17 15a3.009 3.009 0 0 1 .89 2.55v4.99a.992.992 0 0 0 .99.99h6.67a2.145 2.145 0 0 1 1.37.52 2.321 2.321 0 0 1 .75 2.13z"/></svg>