<svg xmlns="http://www.w3.org/2000/svg" xmlns:xlink="http://www.w3.org/1999/xlink" width="83" height="40.9" viewBox="0 0 83 40.9"><defs><path id="a" d="M0 0h83v40.9H0z"/></defs><clipPath id="b"><use xlink:href="#a" overflow="visible"/></clipPath><g clip-path="url(#b)"><defs><path id="c" d="M0 0h83v40.9H0z"/></defs><clipPath id="d"><use xlink:href="#c" overflow="visible"/></clipPath><path clip-path="url(#d)" d="M11 2h64.6c.4 2.8 2.6 5 5.4 5.4v22.5c0 .6.399 1 1 1 .6 0 1-.4 1-1V6.5c0-.6-.4-1-1-1-2.5 0-4.5-2-4.5-4.5 0-.6-.4-1-1-1H11c-.6 0-1 .4-1 1s.4 1 1 1"/><g opacity=".5" clip-path="url(#d)"><defs><path id="e" d="M1.113 1.04h80.625v38.687H1.113z"/></defs><clipPath id="f"><use xlink:href="#e" overflow="visible"/></clipPath><path clip-path="url(#f)" fill="#A57FD3" d="M1.112 33.915V11.54l1.562-.937L6.612 7.04l.375-1.062 3.75-.438.563-4.5h64.875l1.437 3.125s1.25 1.375 1.563 1.5c.312.125 2.562 1.5 2.562 1.5V29.4l-4.125.5-.062 4.015-2.875 1.437-1.625 1.313-.438 1.125-.437.625-.25 1.312H6.799l-1.187-1.562-.438-1.062s-.187-1.188-.749-1.313c-.563-.125-3.313-1.125-3.313-1.125v-.75z"/></g><path clip-path="url(#d)" fill="#023A87" d="M9.1 17.2h31.5c.3 0 .5-.2.5-.5s-.2-.5-.5-.5H9.1c-.3 0-.5.2-.5.5s.2.5.5.5m0 6.4H32c.3 0 .5-.2.5-.5s-.2-.5-.5-.5H9.1c-.3 0-.5.2-.5.5s.2.5.5.5m0 6.3h27.8c.3 0 .5-.2.5-.5s-.2-.5-.5-.5H9.1c-.3 0-.5.2-.5.5s.2.5.5.5"/><path clip-path="url(#d)" fill="#023A87" d="M1 35.4c2.5 0 4.5 2 4.5 4.5 0 .6.4 1 1 1H72c.6 0 1-.4 1-1 0-2.5 2-4.5 4.5-4.5.6 0 1-.4 1-1V11c0-.6-.4-1-1-1C75 10 73 8 73 5.5c0-.6-.4-1-1-1H6.5c-.6 0-1 .4-1 1C5.5 8 3.5 10 1 10c-.6 0-1 .4-1 1v23.4c0 .6.5 1 1 1m1-23.5c2.8-.4 5-2.6 5.4-5.4h41.1v1.2c0 .4.3.8.8.8s.8-.3.8-.8V6.5h21c.4 2.8 2.6 5 5.4 5.4v21.6c-2.8.4-5 2.6-5.4 5.4h-21v-1.101c0-.399-.3-.799-.8-.799s-.8.299-.8.799V38.9H7.4c-.4-2.8-2.6-5-5.4-5.4V11.9z"/><path clip-path="url(#d)" fill="#023A87" d="M49.3 34.4c.4 0 .8-.3.8-.8v-1c0-.4-.3-.8-.8-.8s-.8.3-.8.8v1c0 .5.4.8.8.8m0-5.2c.4 0 .8-.3.8-.8v-1c0-.4-.3-.8-.8-.8s-.8.3-.8.8v1c0 .5.4.8.8.8m0-10.4c.4 0 .8-.3.8-.8v-1c0-.4-.3-.8-.8-.8s-.8.3-.8.8v1c0 .5.4.8.8.8m0 5.2c.4 0 .8-.3.8-.8v-1c0-.4-.3-.8-.8-.8s-.8.3-.8.8v1c0 .5.4.8.8.8m0-10.4c.4 0 .8-.3.8-.8v-1c0-.4-.3-.8-.8-.8s-.8.3-.8.8v1c0 .5.4.8.8.8M12 1v4.438c0 .55-.45 1-1 .999-.55 0-1-.449-1-.999V1c0-.55.45-1 1-1s1 .45 1 1m69.938 29.9h-4.437c-.55 0-1-.45-1-1s.45-1 1-1h4.437c.55 0 1 .45 1 1s-.45 1-1 1M57.7 27c1.6-.3 3.1-.7 4.6-1.2l7-2.6c1.4-.5 2.7-1.4 3.799-2.5a.706.706 0 0 0-.399-1.2l-2.4-.4-4.5 2.1-8.701-1.5-1.5.6 5.8 3-4.599 2.1-3-.3-1.8.7 3.3 1.6 2.4-.4z"/><path clip-path="url(#d)" fill="#023A87" d="M11 2h64.6c.4 2.8 2.6 5 5.4 5.4v22.5c0 .6.399 1 1 1 .6 0 1-.4 1-1V6.5c0-.6-.4-1-1-1-2.5 0-4.5-2-4.5-4.5 0-.6-.4-1-1-1H11c-.6 0-1 .4-1 1s.4 1 1 1M9.1 17.2h31.5c.3 0 .5-.2.5-.5s-.2-.5-.5-.5H9.1c-.3 0-.5.2-.5.5s.2.5.5.5m0 6.4H32c.3 0 .5-.2.5-.5s-.2-.5-.5-.5H9.1c-.3 0-.5.2-.5.5s.2.5.5.5m0 6.3h27.8c.3 0 .5-.2.5-.5s-.2-.5-.5-.5H9.1c-.3 0-.5.2-.5.5s.2.5.5.5"/><path clip-path="url(#d)" fill="#023A87" d="M1 35.4c2.5 0 4.5 2 4.5 4.5 0 .6.4 1 1 1H72c.6 0 1-.4 1-1 0-2.5 2-4.5 4.5-4.5.6 0 1-.4 1-1V11c0-.6-.4-1-1-1C75 10 73 8 73 5.5c0-.6-.4-1-1-1H6.5c-.6 0-1 .4-1 1C5.5 8 3.5 10 1 10c-.6 0-1 .4-1 1v23.4c0 .6.5 1 1 1m1-23.5c2.8-.4 5-2.6 5.4-5.4h41.1v1.2c0 .4.3.8.8.8s.8-.3.8-.8V6.5h21c.4 2.8 2.6 5 5.4 5.4v21.6c-2.8.4-5 2.6-5.4 5.4h-21v-1.101c0-.399-.3-.799-.8-.799s-.8.299-.8.799V38.9H7.4c-.4-2.8-2.6-5-5.4-5.4V11.9z"/><path clip-path="url(#d)" fill="#023A87" d="M49.3 34.4c.4 0 .8-.3.8-.8v-1c0-.4-.3-.8-.8-.8s-.8.3-.8.8v1c0 .5.4.8.8.8m0-5.2c.4 0 .8-.3.8-.8v-1c0-.4-.3-.8-.8-.8s-.8.3-.8.8v1c0 .5.4.8.8.8m0-10.4c.4 0 .8-.3.8-.8v-1c0-.4-.3-.8-.8-.8s-.8.3-.8.8v1c0 .5.4.8.8.8m0 5.2c.4 0 .8-.3.8-.8v-1c0-.4-.3-.8-.8-.8s-.8.3-.8.8v1c0 .5.4.8.8.8m0-10.4c.4 0 .8-.3.8-.8v-1c0-.4-.3-.8-.8-.8s-.8.3-.8.8v1c0 .5.4.8.8.8M57.7 27c1.6-.3 3.1-.7 4.6-1.2l7-2.6c1.4-.5 2.7-1.4 3.799-2.5a.706.706 0 0 0-.399-1.2l-2.4-.4-4.5 2.1-8.701-1.5-1.5.6 5.8 3-4.599 2.1-3-.3-1.8.7 3.3 1.6 2.4-.4z"/></g></svg>