<svg xmlns="http://www.w3.org/2000/svg" width="70" height="49.18" viewBox="0 0 70 49.18"><defs><style>.cls-1{fill:#023a87;fill-rule:evenodd}</style></defs><path id="_icon_3" data-name="icon_3" class="cls-1" d="M1386.62 1126.86a4.106 4.106 0 0 1-4.1-4.1 1.361 1.361 0 0 0-1.36-1.36h-56.32a1.361 1.361 0 0 0-1.36 1.36 4.106 4.106 0 0 1-4.1 4.1 1.372 1.372 0 0 0-1.37 1.37v35.54a1.372 1.372 0 0 0 1.37 1.37 4.106 4.106 0 0 1 4.1 4.1 1.361 1.361 0 0 0 1.36 1.36h56.32a1.361 1.361 0 0 0 1.36-1.36 4.106 4.106 0 0 1 4.1-4.1 1.372 1.372 0 0 0 1.37-1.37v-35.54a1.372 1.372 0 0 0-1.37-1.37zm-1.36 35.68a6.839 6.839 0 0 0-5.33 5.33h-12.72v-4.1a1.365 1.365 0 1 0-2.73 0v4.1h-38.41a6.839 6.839 0 0 0-5.33-5.33v-33.08a6.839 6.839 0 0 0 5.33-5.33h38.41v4.1a1.365 1.365 0 1 0 2.73 0v-4.1h12.72a6.839 6.839 0 0 0 5.33 5.33v33.08zm-23.74-17.3a10.158 10.158 0 0 0-8.87-4.48l-3.6.19-6.64-10.71a1.367 1.367 0 0 0-1.16-.64h-2.74a1.362 1.362 0 0 0-1.06.5 1.381 1.381 0 0 0-.28 1.14l2.1 10.22c-5.51.29-5.24.25-5.73.32l-3.49-4.79a1.383 1.383 0 0 0-1.11-.56h-4.1a1.367 1.367 0 0 0-1.27 1.87c1 2.51 2.54 6.44 3.01 7.7-.47 1.26-2.01 5.19-3.01 7.7a1.367 1.367 0 0 0 1.27 1.87h4.1a1.383 1.383 0 0 0 1.11-.56l3.49-4.79c.49.07.21.03 5.73.32l-2.1 10.22a1.381 1.381 0 0 0 .28 1.14 1.362 1.362 0 0 0 1.06.5h2.74a1.367 1.367 0 0 0 1.16-.64l6.64-10.71 3.61.19a10.152 10.152 0 0 0 8.86-4.48 1.4 1.4 0 0 0 0-1.52zm-8.73 3.27l-4.41-.23a1.341 1.341 0 0 0-1.23.65l-6.67 10.74h-.29l2.08-10.13a1.372 1.372 0 0 0-1.27-1.64c-7.37-.43-6.51-.27-7.76-.49l-.08-.01a1.349 1.349 0 0 0-1.33.54l-3.58 4.89h-1.4c2.55-6.43 2.55-6.52 2.55-6.83s0-.4-2.55-6.83h1.4l3.58 4.89a1.349 1.349 0 0 0 1.33.54l.08-.01c1.25-.22.41-.06 7.76-.49a1.372 1.372 0 0 0 1.27-1.64l-2.08-10.13h.29l6.67 10.74a1.361 1.361 0 0 0 1.23.65l4.41-.23a3.472 3.472 0 1 1 0 5.02zm13.06-16.18a1.366 1.366 0 0 0-1.37 1.37v2.73a1.365 1.365 0 1 0 2.73 0v-2.73a1.364 1.364 0 0 0-1.36-1.37zm0 10.94a1.364 1.364 0 0 0-1.37 1.36v2.74a1.365 1.365 0 0 0 2.73 0v-2.74a1.361 1.361 0 0 0-1.36-1.36zm0 10.93a1.366 1.366 0 0 0-1.37 1.37v2.73a1.365 1.365 0 1 0 2.73 0v-2.73a1.364 1.364 0 0 0-1.36-1.37zm15.31-21.87h-9.84a1.37 1.37 0 0 0 0 2.74h9.84a1.37 1.37 0 0 0 0-2.74zm0 8.2h-9.84a1.37 1.37 0 0 0 0 2.74h9.84a1.37 1.37 0 0 0 0-2.74zm0 8.2h-9.84a1.37 1.37 0 1 0 0 2.74h9.84a1.37 1.37 0 0 0 0-2.74zm0 8.2h-9.84a1.37 1.37 0 1 0 0 2.74h9.84a1.37 1.37 0 0 0 0-2.74z" transform="translate(-1318 -1121.41)"/></svg>