<svg xmlns="http://www.w3.org/2000/svg" xmlns:xlink="http://www.w3.org/1999/xlink" width="78.5" height="36.4"><defs><path id="a" d="M0 0h78.5v36.4H0z"/></defs><clipPath id="b"><use xlink:href="#a" overflow="visible"/></clipPath><g clip-path="url(#b)"><defs><path id="c" d="M0 0h78.5v36.4H0z"/></defs><clipPath id="d"><use xlink:href="#c" overflow="visible"/></clipPath><g opacity=".5" clip-path="url(#d)"><defs><path id="e" d="M.667 1.636h76.917v33.75H.667z"/></defs><clipPath id="f"><use xlink:href="#e" overflow="visible"/></clipPath><path clip-path="url(#f)" fill="#FDC210" d="M.666 29.385L1.249 6.5l2.5-.615 1.834-2.333 1.083-1.917h64.5l.917 1.333 1.833 2.417L76.499 6.5l.75 1.3.334 21.585h-1.834s-2.466 1.5-2.441 1.834c.025.333-1.309 1.916-1.309 1.916V34.4l-.833.985H6.499l-1.166-2.666s-1-1-1.417-1.334c-.417-.333-1-1-1.333-1.083-.334-.083-1.917-.917-1.917-.917"/></g><path clip-path="url(#d)" fill="#023A87" d="M9.1 12.7h31.5c.3 0 .5-.2.5-.5s-.2-.5-.5-.5H9.1c-.3 0-.5.2-.5.5s.2.5.5.5m0 6.4H32c.3 0 .5-.2.5-.5s-.2-.5-.5-.5H9.1c-.3 0-.5.2-.5.5s.2.5.5.5m0 6.3h27.8c.3 0 .5-.2.5-.5s-.2-.5-.5-.5H9.1c-.3 0-.5.2-.5.5s.2.5.5.5"/><path clip-path="url(#d)" fill="#023A87" d="M1 30.9c2.5 0 4.5 2 4.5 4.5 0 .6.4 1 1 1H72c.6 0 1-.4 1-1 0-2.5 2-4.5 4.5-4.5.6 0 1-.4 1-1V6.5c0-.6-.4-1-1-1C75 5.5 73 3.5 73 1c0-.6-.4-1-1-1H6.5c-.6 0-1 .4-1 1 0 2.5-2 4.5-4.5 4.5-.6 0-1 .4-1 1v23.4c0 .6.5 1 1 1M2 7.4C4.8 7 7 4.8 7.4 2h41.1v1.2c0 .4.3.8.8.8s.8-.3.8-.8V2h21c.4 2.8 2.6 5 5.4 5.4V29c-2.8.4-5 2.6-5.4 5.4h-21v-1.1c0-.4-.3-.8-.8-.8s-.8.3-.8.8v1.1H7.4C7 31.6 4.8 29.4 2 29V7.4z"/><path clip-path="url(#d)" fill="#023A87" d="M49.3 29.9c.4 0 .8-.3.8-.8v-1c0-.4-.3-.8-.8-.8s-.8.3-.8.8v1c0 .5.401.8.8.8m0-5.2c.4 0 .8-.3.8-.8v-1c0-.4-.3-.8-.8-.8s-.8.3-.8.8v1c0 .5.401.8.8.8m0-10.4c.4 0 .8-.3.8-.8v-1c0-.4-.3-.8-.8-.8s-.8.3-.8.8v1c0 .5.401.8.8.8m0 5.2c.4 0 .8-.3.8-.8v-1c0-.4-.3-.8-.8-.8s-.8.3-.8.8v1c0 .5.401.8.8.8m0-10.4c.4 0 .8-.3.8-.8v-1c0-.4-.3-.8-.8-.8s-.8.3-.8.8v1c0 .5.401.8.8.8m8.4 13.4c1.6-.3 3.1-.699 4.6-1.199l7-2.601c1.4-.5 2.7-1.4 3.799-2.5A.706.706 0 0 0 72.7 15l-2.4-.399-4.5 2.099-8.701-1.5-1.5.6 5.801 3-4.6 2.1-3-.299-1.8.7 3.3 1.599 2.4-.4z"/></g></svg>