<svg xmlns="http://www.w3.org/2000/svg" xmlns:xlink="http://www.w3.org/1999/xlink" width="87" height="44.9"><defs><path id="a" d="M0 0h87v44.9H0z"/></defs><clipPath id="b"><use xlink:href="#a" overflow="visible"/></clipPath><g clip-path="url(#b)"><defs><path id="c" d="M0 0h87v44.9H0z"/></defs><clipPath id="d"><use xlink:href="#c" overflow="visible"/></clipPath><g opacity=".35" clip-path="url(#d)"><defs><path id="e" d="M.467 1.102H85.8v43.167H.467z"/></defs><clipPath id="f"><use xlink:href="#e" overflow="visible"/></clipPath><path clip-path="url(#f)" fill="#6AD3F5" d="M.467 37.935L.966 15.45 2 14.999l3.049-2.064 1.584-1.833.833-1.334L11 9.018l.466-1.799V5.433H14l1.746-.338V1.518l4.803-.416h59.169l1.081 1.614 1.334 2.717 2.149.919 1.517.867V29.9h-4.237v4h-4.429l.25 4.5-3.334 1.202-.741.833-.842 1.417-.333 1.583-1.5.834H7.216l-1.333-1.834-.584-1.25-1.666-1.666L2 38.4z"/></g><path clip-path="url(#d)" fill="#023A87" d="M9.1 21.2h31.5c.3 0 .5-.2.5-.5s-.2-.5-.5-.5H9.1c-.3 0-.5.2-.5.5s.2.5.5.5m0 6.4H32c.3 0 .5-.2.5-.5s-.2-.5-.5-.5H9.1c-.3 0-.5.2-.5.5s.2.5.5.5m0 6.3h27.8c.3 0 .5-.2.5-.5s-.2-.5-.5-.5H9.1c-.3 0-.5.2-.5.5s.2.5.5.5"/><path clip-path="url(#d)" fill="#023A87" d="M1 39.4c2.5 0 4.5 2 4.5 4.5 0 .6.4 1 1 1H72c.6 0 1-.4 1-1 0-2.5 2-4.5 4.5-4.5.6 0 1-.4 1-1V15c0-.6-.4-1-1-1C75 14 73 12 73 9.5c0-.6-.4-1-1-1H6.5c-.6 0-1 .4-1 1C5.5 12 3.5 14 1 14c-.6 0-1 .4-1 1v23.4c0 .6.5 1 1 1m1-23.5c2.8-.4 5-2.6 5.4-5.4h41.1v1.2c0 .4.3.8.8.8s.8-.3.8-.8v-1.2h21c.4 2.8 2.6 5 5.4 5.4v21.6c-2.8.4-5 2.6-5.4 5.4h-21v-1.101c0-.399-.3-.799-.8-.799s-.8.299-.8.799V42.9H7.4c-.4-2.8-2.6-5-5.4-5.4V15.9z"/><path clip-path="url(#d)" fill="#023A87" d="M11 6h64.6c.4 2.8 2.6 5 5.4 5.4v22.5c0 .6.399 1 1 1 .6 0 1-.4 1-1V10.5c0-.6-.4-1-1-1-2.5 0-4.5-2-4.5-4.5 0-.6-.4-1-1-1H11c-.6 0-1 .4-1 1s.4 1 1 1m38.3 32.4c.4 0 .8-.3.8-.8v-1c0-.4-.3-.8-.8-.8s-.8.3-.8.8v1c0 .5.4.8.8.8m0-5.2c.4 0 .8-.3.8-.8v-1c0-.4-.3-.8-.8-.8s-.8.3-.8.8v1c0 .5.4.8.8.8"/><path clip-path="url(#d)" fill="#023A87" d="M49.3 22.8c.4 0 .8-.3.8-.8v-1c0-.4-.3-.8-.8-.8s-.8.3-.8.8v1c0 .5.4.8.8.8m0 5.2c.4 0 .8-.3.8-.8v-1c0-.4-.3-.8-.8-.8s-.8.3-.8.8v1c0 .5.4.8.8.8m0-10.4c.4 0 .8-.3.8-.8v-1c0-.4-.3-.8-.8-.8s-.8.3-.8.8v1c0 .5.4.8.8.8M12 5v4.438c0 .55-.45 1-1 .999-.55 0-1-.449-1-.999V5c0-.55.45-1 1-1s1 .45 1 1m69.938 29.9h-4.437c-.55 0-1-.45-1-1s.45-1 1-1h4.437c.55 0 1 .45 1 1s-.45 1-1 1M57.7 31c1.6-.3 3.1-.7 4.6-1.2l7-2.6c1.4-.5 2.7-1.4 3.799-2.5a.706.706 0 0 0-.399-1.2l-2.4-.4-4.5 2.1-8.701-1.5-1.5.6 5.8 3-4.599 2.1-3-.3-1.8.7 3.3 1.6 2.4-.4z"/><path clip-path="url(#d)" fill="#023A87" d="M15 2h64.6c.4 2.8 2.6 5 5.4 5.4v22.5c0 .6.399 1 1 1 .6 0 1-.4 1-1V6.5c0-.6-.4-1-1-1-2.5 0-4.5-2-4.5-4.5 0-.6-.4-1-1-1H15c-.6 0-1 .4-1 1s.4 1 1 1"/><path clip-path="url(#d)" fill="#023A87" d="M16.001 1v3.434c0 .55-.45 1-1 1H15c-.55 0-1-.45-1-1V1c0-.55.45-1 1-1h.001c.55 0 1 .45 1 1M86 30.9h-3.438c-.549 0-.999-.45-.999-1s.45-1 .999-1H86c.55 0 1 .45 1 1s-.45 1-1 1"/></g></svg>