<svg xmlns="http://www.w3.org/2000/svg" width="40" height="40" viewBox="0 0 40 40"><defs><style>.cls-1{fill:#fff;fill-rule:evenodd}</style></defs><path id="Forma_1_копия_2" data-name="Forma 1 копия 2" class="cls-1" d="M1372.16 2292.33h-38.32a.83.83 0 0 0 0 1.66h38.32a.83.83 0 0 0 0-1.66zm-31.66-10h-4.99a.837.837 0 0 0-.84.83v10a.837.837 0 0 0 .84.83h4.99a.837.837 0 0 0 .84-.83v-10a.837.837 0 0 0-.84-.83zm-.83 10h-3.33V2284h3.33v8.33zm10.83-18.33h-5a.828.828 0 0 0-.83.83v18.33a.828.828 0 0 0 .83.83h5a.828.828 0 0 0 .83-.83v-18.33a.828.828 0 0 0-.83-.83zm-.83 18.33h-3.33v-16.66h3.33v16.66zm10.83-15h-5a.834.834 0 0 0-.83.83v15a.828.828 0 0 0 .83.83h5a.828.828 0 0 0 .83-.83v-15a.834.834 0 0 0-.83-.83zm-.84 15h-3.33V2279h3.33v13.33zm10.83-24.99h-4.99a.837.837 0 0 0-.84.83v24.99a.837.837 0 0 0 .84.83h4.99a.837.837 0 0 0 .84-.83v-24.99a.837.837 0 0 0-.84-.83zm-.83 24.99h-3.33V2269h3.33v23.33zM1338 2269a3.335 3.335 0 1 0 3.34 3.33 3.342 3.342 0 0 0-3.34-3.33zm0 5a1.665 1.665 0 1 1 1.67-1.67 1.664 1.664 0 0 1-1.67 1.67zm10-13.33a3.335 3.335 0 1 0 3.33 3.33 3.329 3.329 0 0 0-3.33-3.33zm0 5a1.665 1.665 0 1 1 1.67-1.67 1.664 1.664 0 0 1-1.67 1.67zm10-1.67a3.335 3.335 0 1 0 3.33 3.34 3.337 3.337 0 0 0-3.33-3.34zm0 5a1.665 1.665 0 1 1 1.66-1.66 1.671 1.671 0 0 1-1.66 1.66zm10-14.99a3.33 3.33 0 1 0 3.33 3.33 3.337 3.337 0 0 0-3.33-3.33zm0 4.99a1.665 1.665 0 1 1 1.66-1.66 1.664 1.664 0 0 1-1.66 1.66zm-1.18-.49a.845.845 0 0 0-1.18 0l-6.46 6.47a.83.83 0 0 0 .59 1.42.818.818 0 0 0 .58-.24l6.47-6.47a.845.845 0 0 0 0-1.18zm-10.84 6.9l-5.35-1.52a.829.829 0 0 0-1.03.57.84.84 0 0 0 .58 1.03l5.35 1.53a.852.852 0 0 0 .23.03.835.835 0 0 0 .22-1.64zm-9.28-.37a.828.828 0 0 0-1.17-.13l-6.28 5.01a.828.828 0 0 0-.13 1.17.838.838 0 0 0 1.17.13l6.28-5.01a.829.829 0 0 0 .13-1.17z" transform="translate(-1333 -2254)"/></svg>